<?xml version="1.0" encoding="UTF-8"?>
<svg width="30px" height="30px" viewBox="0 0 30 30" version="1.1" xmlns="http://www.w3.org/2000/svg" xmlns:xlink="http://www.w3.org/1999/xlink">
    <!-- Generator: Sketch 52.1 (67048) - http://www.bohemiancoding.com/sketch -->
    <title>icon-git-blue</title>
    <desc>Created with Sketch.</desc>
    <g id="icon-git-blue" stroke="none" stroke-width="1" fill="none" fill-rule="evenodd">
        <path d="M15.303308,3 C8.50925955,3 3,8.50925955 3,15.3048187 C3,20.7400574 6.52504995,25.3520041 11.4149521,26.9789502 C12.0305329,27.091492 12.2548611,26.7123244 12.2548611,26.3860288 C12.2548611,26.0937223 12.2442868,25.3202809 12.2382442,24.293054 C8.81591699,25.0370382 8.0938369,22.6442038 8.0938369,22.6442038 C7.53414931,21.222703 6.72747407,20.8442908 6.72747407,20.8442908 C5.61036482,20.0806684 6.81206923,20.09653 6.81206923,20.09653 C8.04700744,20.1833911 8.69657739,21.3639467 8.69657739,21.3639467 C9.79404848,23.2446783 11.575834,22.7016076 12.2775206,22.3866417 C12.389307,21.5912962 12.7065389,21.0489808 13.0585151,20.7415681 C10.3265448,20.4311341 7.45408604,19.3759605 7.45408604,14.6605359 C7.45408604,13.3175878 7.93371036,12.2193614 8.72074744,11.3590589 C8.5938547,11.0478695 8.17163424,9.79706974 8.84084235,8.10365599 C8.84084235,8.10365599 9.87411175,7.77207319 12.2246486,9.36427488 C13.2058013,9.09160656 14.2587089,8.95489474 15.3048187,8.95036286 C16.3494178,8.95489474 17.4023253,9.09160656 18.3849887,9.36427488 C20.7340149,7.77207319 21.7650184,8.10365599 21.7650184,8.10365599 C22.4364924,9.79706974 22.014272,11.0478695 21.8873792,11.3590589 C22.675927,12.2193614 23.15253,13.3175878 23.15253,14.6605359 C23.15253,19.3872903 20.2755394,20.4273575 17.5345053,20.7325043 C17.9763639,21.1116719 18.3698824,21.8632092 18.3698824,23.010531 C18.3698824,24.6556047 18.3547762,25.9826912 18.3547762,26.3860288 C18.3547762,26.7145903 18.5760831,27.0975345 19.2007277,26.9774396 C24.0853427,25.3474722 27.6081267,20.7385468 27.6081267,15.3048187 C27.6081267,8.50925955 22.0988671,3 15.303308,3" id="Git-Hub" fill="#2D333A"></path>
    </g>
</svg>