<?xml version="1.0" encoding="UTF-8"?>
<svg width="120px" height="120px" viewBox="0 0 120 120" version="1.1" xmlns="http://www.w3.org/2000/svg" xmlns:xlink="http://www.w3.org/1999/xlink">
    <!-- Generator: Sketch 52.1 (67048) - http://www.bohemiancoding.com/sketch -->
    <title>community-slack</title>
    <desc>Created with Sketch.</desc>
    <g id="community-slack" stroke="none" stroke-width="1" fill="none" fill-rule="evenodd">
        <g id="Group-17" transform="translate(18.000000, 18.000000)">
            <path d="M55.0620246,5.23363115 C53.7389508,1.26231967 49.4882541,-0.897516393 45.5169426,0.356581967 C41.5456311,1.68035246 39.3857951,5.93035246 40.6398934,9.90166393 L60.2177623,70.0983852 C61.5415328,73.7910082 65.5832131,75.8811721 69.4151803,74.766418 C73.4554672,73.5819918 75.8939918,69.3319918 74.5702213,65.4303525 C74.5702213,65.2910082 55.0620246,5.23363115 55.0620246,5.23363115" id="Fill-1" fill="#ECB32D"></path>
            <path d="M24.7546475,15.0574713 C23.430877,11.0861598 19.180877,8.92632377 15.2095656,10.1804221 C11.2382541,11.5041926 9.07841803,15.7541926 10.3325164,19.7255041 L29.9103852,79.9222254 C31.2341557,83.6141516 35.2751393,85.7043156 39.1071066,84.5902582 C43.1480902,83.405832 45.5866148,79.155832 44.2628443,75.2534959 C44.2628443,75.1148484 24.7546475,15.0574713 24.7546475,15.0574713" id="Fill-3" fill="#63C1A0"></path>
            <path d="M79.7262377,55.0488566 C83.6975492,53.7257828 85.8573852,49.4750861 84.6032869,45.5044713 C83.2795164,41.5331598 79.0295164,39.372627 75.0582049,40.6274221 L14.7918115,60.2742664 C11.0991885,61.5980369 9.00902459,65.6390205 10.1237787,69.4709877 C11.3082049,73.5119713 15.5582049,75.9504959 19.4598443,74.6274221 C19.5991885,74.6274221 79.7262377,55.0488566 79.7262377,55.0488566" id="Fill-5" fill="#E01A59"></path>
            <path d="M27.3326557,72.1185287 C31.2342951,70.8644303 36.3203607,69.1929959 41.7547869,67.4511926 C40.5006885,63.5488566 38.8285574,58.462791 37.0867541,53.0290615 L22.664623,57.6970943 L27.3326557,72.1185287 Z" id="Fill-7" fill="#331433"></path>
            <path d="M57.7094262,62.2255738 C63.1445492,60.4837705 68.2306148,58.8116393 72.1315574,57.557541 C70.877459,53.6552049 69.2053279,48.5691393 67.4635246,43.1354098 L53.0420902,47.8034426 L57.7094262,62.2255738 Z" id="Fill-9" fill="#D62027"></path>
            <path d="M69.8326557,24.7418279 C73.8039672,23.4180574 75.9638033,19.1680574 74.7097049,15.1967459 C73.3859344,11.2254344 69.1359344,9.06559836 65.164623,10.3196967 L4.96790164,29.8975656 C1.27527869,31.2213361 -0.814885246,35.2623197 0.299868852,39.0942869 C1.48429508,43.1352705 5.73429508,45.5737951 9.63593443,44.2500246 C9.77527869,44.2500246 69.8326557,24.7418279 69.8326557,24.7418279" id="Fill-11" fill="#89D3DF"></path>
            <path d="M17.5087459,41.7417582 C21.4103852,40.4876598 26.4964508,38.8155287 31.930877,37.0737254 C30.1890738,31.6392992 28.5169426,26.5532336 27.2628443,22.6515943 L12.8407131,27.319627 L17.5087459,41.7417582 Z" id="Fill-13" fill="#258B74"></path>
            <path d="M47.816541,31.917918 C53.2509672,30.1761148 58.3370328,28.5039836 62.2379754,27.2498852 C60.4961721,21.815459 58.8247377,16.7293934 57.5706393,12.8277541 L43.1485082,17.4957869 L47.816541,31.917918 Z" id="Fill-15" fill="#819C3C"></path>
        </g>
    </g>
</svg>