<?xml version="1.0" encoding="UTF-8"?>
<svg width="120px" height="120px" viewBox="0 0 120 120" version="1.1" xmlns="http://www.w3.org/2000/svg" xmlns:xlink="http://www.w3.org/1999/xlink">
    <!-- Generator: Sketch 52.1 (67048) - http://www.bohemiancoding.com/sketch -->
    <title>community-email</title>
    <desc>Created with Sketch.</desc>
    <g id="community-email" stroke="none" stroke-width="1" fill="none" fill-rule="evenodd">
        <path d="M54.7032174,98.2284348 C47.8482266,98.2284348 41.7842872,96.6630157 36.5112174,93.5321304 C31.2381475,90.4012452 27.1680578,86.2158088 24.3008261,80.9756957 C21.4335944,75.7355825 20,70.1165517 20,64.1184348 C20,56.6702236 21.9114591,49.7164671 25.7344348,43.2569565 C29.5574104,36.797446 34.6820983,31.6398019 41.1086522,27.7838696 C47.535206,23.9279372 54.4724845,22 61.9206957,22 C68.7097731,22 74.9879277,23.4665506 80.7553478,26.3996957 C86.522768,29.3328408 91.1036787,33.3864524 94.4982174,38.5606522 C97.8927561,43.734852 99.59,49.6175323 99.59,56.2088696 C99.59,60.3614121 98.9473543,64.2831989 97.6620435,67.9743478 C96.3767327,71.6654967 94.366405,74.6974664 91.631,77.0703478 C88.895595,79.4432293 85.4187167,80.6296522 81.2002609,80.6296522 C77.9045922,80.6296522 75.3340092,79.9046159 73.4884348,78.4545217 C71.6428603,77.0044275 70.5223498,75.2907055 70.1268696,73.3133043 C68.083555,75.8180125 65.6447968,77.6800374 62.8105217,78.8994348 C59.9762467,80.1188322 56.9772332,80.7285217 53.8133913,80.7285217 C48.5403215,80.7285217 44.4207974,79.1136683 41.4546957,75.883913 C38.4885939,72.6541578 37.0055652,68.4687214 37.0055652,63.3274783 C37.0055652,58.3839753 38.1095977,54.0996703 40.3176957,50.4744348 C42.5257936,46.8491993 45.4259386,44.0808791 49.0182174,42.1693913 C52.6104962,40.2579035 56.4169364,39.3021739 60.4376522,39.3021739 C65.3811552,39.3021739 69.5995478,40.9829397 73.0929565,44.3445217 L73.3895652,42.6637391 C73.521392,41.8068653 73.9333444,41.0818291 74.6254348,40.4886087 C75.3175252,39.8953883 76.1249519,39.5987826 77.0477391,39.5987826 C78.0364397,39.5987826 78.8768226,39.9448226 79.568913,40.636913 C80.2610035,41.3290035 80.6070435,42.2023426 80.6070435,43.2569565 L80.5081739,44.3445217 L77.2454783,63.1297391 C76.7840846,65.5685339 76.5533913,67.7106864 76.5533913,69.5562609 C76.5533913,71.4018353 76.9653437,72.9342983 77.7892609,74.1536957 C78.613178,75.3730931 79.8490352,75.9827826 81.4968696,75.9827826 C85.5834987,75.9827826 88.730815,74.2031482 90.938913,70.6438261 C93.147011,67.0845039 94.2510435,62.2728999 94.2510435,56.2088696 C94.2510435,50.1448392 92.7021024,44.9212828 89.6041739,40.5380435 C86.5062454,36.1548042 82.4691118,32.8427069 77.4926522,30.6016522 C72.5161925,28.3605975 67.3255922,27.240087 61.9206957,27.240087 C55.3952717,27.240087 49.3148543,28.9208528 43.6792609,32.2824348 C38.0436675,35.6440168 33.5451472,40.1590151 30.1835652,45.8275652 C26.8219832,51.4961153 25.1412174,57.5930109 25.1412174,64.1184348 C25.1412174,68.9960244 26.3111622,73.6593256 28.651087,78.1084783 C30.9910117,82.5576309 34.3854995,86.166334 38.8346522,88.9346957 C43.2838049,91.7030573 48.5732737,93.0872174 54.7032174,93.0872174 C58.7239331,93.0872174 62.2172895,92.7082212 65.1833913,91.9502174 C68.1494931,91.1922136 71.5439809,90.055225 75.3669565,88.5392174 C75.7624368,88.4073906 76.1249549,88.3414783 76.4545217,88.3414783 C77.1795688,88.3414783 77.7727803,88.5721716 78.2341739,89.0335652 C78.6955675,89.4949588 78.9262609,90.0552141 78.9262609,90.7143478 C78.9262609,91.1757414 78.7944361,91.62065 78.5307826,92.049087 C78.2671291,92.4775239 77.9375672,92.7906077 77.542087,92.9883478 C70.5552694,96.4817566 62.942389,98.2284348 54.7032174,98.2284348 Z M55.9885217,73.9065217 C64.0299533,73.9065217 68.8415573,69.2926548 70.4234783,60.0647826 L72.0053913,50.869913 C69.1052029,47.8378979 65.3811532,46.321913 60.8331304,46.321913 C57.9988554,46.321913 55.3458819,46.9480807 52.8741304,48.2004348 C50.4023789,49.4527889 48.4085293,51.2818575 46.8925217,53.6876957 C45.3765142,56.0935338 44.6185217,58.9772006 44.6185217,62.3387826 C44.6185217,66.1617582 45.6731199,69.0454251 47.7823478,70.9898696 C49.8915758,72.9343141 52.6269397,73.9065217 55.9885217,73.9065217 Z" id="@" fill="#61879F"></path>
    </g>
</svg>