<?xml version="1.0" encoding="UTF-8"?>
<svg width="30px" height="30px" viewBox="0 0 30 30" version="1.1" xmlns="http://www.w3.org/2000/svg" xmlns:xlink="http://www.w3.org/1999/xlink">
    <!-- Generator: Sketch 52.1 (67048) - http://www.bohemiancoding.com/sketch -->
    <title>icon-twitter-blue</title>
    <desc>Created with Sketch.</desc>
    <g id="icon-twitter-blue" stroke="none" stroke-width="1" fill="none" fill-rule="evenodd">
        <path d="M25.338817,9.26350638 C25.3494383,9.49219574 25.3541957,9.72210213 25.3541957,9.95311489 C25.3541957,17.0016596 19.9885702,25.130366 10.1767234,25.130366 C7.16382128,25.130366 4.3608,24.2473617 2,22.734383 C2.41754894,22.783617 2.84206809,22.8082894 3.27245106,22.8082894 C5.77177021,22.8082894 8.07160851,21.9557106 9.89769362,20.5248255 C7.56267234,20.4814553 5.59342128,18.9391574 4.91443404,16.8198809 C5.23926809,16.8820596 5.57350638,16.9161362 5.91714894,16.9161362 C6.40384681,16.9161362 6.87538723,16.8503064 7.3233617,16.7284936 C4.88268085,16.2393617 3.0437617,14.0825787 3.0437617,11.4988426 C3.0437617,11.4754979 3.0437617,11.4531489 3.04497872,11.4308 C3.76390638,11.8307574 4.58605957,12.0711745 5.4608766,12.0981702 C4.02888511,11.142366 3.08713191,9.50868085 3.08713191,7.6579234 C3.08713191,6.68098723 3.35100426,5.76501277 3.8096,4.97693617 C6.44024681,8.2044766 10.3714468,10.3272936 14.8047234,10.5501191 C14.7132255,10.159566 14.6663149,9.75252766 14.6663149,9.33387234 C14.6663149,6.38901277 17.0553277,4 20.0014043,4 C21.5354043,4 22.9217021,4.64845106 23.8950979,5.68524255 C25.1102383,5.44604255 26.2512511,5.00149787 27.2821787,4.39055319 C26.8834383,5.63600851 26.0378298,6.68098723 24.9365362,7.3412766 C26.0155915,7.21227234 27.0440851,6.9261617 28,6.50153191 C27.2857191,7.57118298 26.3802553,8.51061277 25.338817,9.26350638" id="Twitter" fill="#61879F"></path>
    </g>
</svg>