<?xml version="1.0" encoding="UTF-8"?>
<svg width="30px" height="30px" viewBox="0 0 30 30" version="1.1" xmlns="http://www.w3.org/2000/svg" xmlns:xlink="http://www.w3.org/1999/xlink">
    <!-- Generator: Sketch 52.1 (67048) - http://www.bohemiancoding.com/sketch -->
    <title>icon-docker-blue</title>
    <desc>Created with Sketch.</desc>
    <g id="icon-docker-blue" stroke="none" stroke-width="1" fill="none" fill-rule="evenodd">
        <g id="Group-5" transform="translate(1.000000, 5.000000)" fill="#61879F">
            <path d="M16.3450065,9.22294771 L19.3289739,9.22294771 L19.3289739,6.51021569 L16.3450065,6.51021569 L16.3450065,9.22294771 Z M12.8185686,9.22294771 L15.8023464,9.22294771 L15.8023464,6.51021569 L12.8185686,6.51021569 L12.8185686,9.22294771 Z M9.29213072,9.22294771 L12.276098,9.22294771 L12.276098,6.51021569 L9.29213072,6.51021569 L9.29213072,9.22294771 Z M5.76569281,9.22294771 L8.74966013,9.22294771 L8.74966013,6.51021569 L5.76569281,6.51021569 L5.76569281,9.22294771 Z M2.2392549,9.22294771 L5.22322222,9.22294771 L5.22322222,6.51021569 L2.2392549,6.51021569 L2.2392549,9.22294771 Z M5.76569281,5.9677451 L8.74966013,5.9677451 L8.74966013,3.25520261 L5.76569281,3.25520261 L5.76569281,5.9677451 Z M9.29213072,5.9677451 L12.276098,5.9677451 L12.276098,3.25520261 L9.29213072,3.25520261 L9.29213072,5.9677451 Z M12.8185686,5.9677451 L15.8023464,5.9677451 L15.8023464,3.25520261 L12.8185686,3.25520261 L12.8185686,5.9677451 Z M12.8185686,2.71273203 L15.8023464,2.71273203 L15.8023464,0 L12.8185686,0 L12.8185686,2.71273203 Z M28.2962288,7.64121569 C27.6445817,7.20526797 26.1471961,7.04548366 24.9949673,7.26288889 C24.8465556,6.17737908 24.2417255,5.2364902 23.1414314,4.38582353 L22.5089281,3.96390196 L22.086817,4.5971634 C21.5464314,5.41200654 21.2765229,6.54092157 21.3650392,7.62358824 C21.4048431,8.00437908 21.5299412,8.68559477 21.9217255,9.28454902 C21.5301307,9.49494118 20.7560392,9.78494118 19.735732,9.7654183 L0.11145098,9.7654183 L0.0729738562,9.99154248 C-0.11145098,11.0795163 -0.107470588,14.4746013 2.0969085,17.0842222 C3.77246405,19.0675948 6.28466013,20.0734967 9.56336601,20.0734967 C16.6712092,20.0734967 21.9298758,16.8016144 24.3926013,10.8539608 C25.3609739,10.8732941 27.4459412,10.8598366 28.5170458,8.81334641 C28.5449085,8.76633987 28.6091634,8.64351634 28.7962418,8.25590196 L28.8987843,8.04323529 L28.2962288,7.64121569 Z" id="Fill-1"></path>
        </g>
    </g>
</svg>