<?xml version="1.0" encoding="UTF-8"?>
<svg width="36px" height="36px" viewBox="0 0 36 36" version="1.1" xmlns="http://www.w3.org/2000/svg" xmlns:xlink="http://www.w3.org/1999/xlink">
    <!-- Generator: Sketch 52.1 (67048) - http://www.bohemiancoding.com/sketch -->
    <title>logo-white</title>
    <desc>Created with Sketch.</desc>
    <defs>
        <polygon id="path-1" points="0.481909091 0.417939941 12.5792727 0.417939941 12.5792727 17.0615483 0.481909091 17.0615483"></polygon>
        <polygon id="path-3" points="0 0.292254545 17.7204 0.292254545 17.7204 24.8235273 0 24.8235273"></polygon>
    </defs>
    <g id="logo-white" stroke="none" stroke-width="1" fill="none" fill-rule="evenodd">
        <g id="Group-3" transform="translate(-67, 0)">
            <g id="Group-35">
                <g id="Group-3" transform="translate(90.545455, 9.248236)">
                    <mask id="mask-2" fill="white">
                        <use xlink:href="#path-1"></use>
                    </mask>
                    <g id="Clip-2"></g>
                    <path d="M8.02390909,4.9686 C10.1037273,7.04787273 10.1037273,10.4313273 8.02445455,12.5106 C5.94463636,14.5898727 2.56118182,14.5904182 0.481909091,12.5106 C1.731,13.7596909 2.49463636,15.3109636 2.78318182,16.9315091 C5.37572727,17.3924182 8.145,16.6287818 10.1435455,14.6296909 C13.3917273,11.3820545 13.3911818,6.09714545 10.1435455,2.84896364 C8.145,0.850418182 5.37572727,0.0867818182 2.78372727,0.548236364 C2.49518182,2.16769091 1.73154545,3.71896364 0.482454545,4.9686 C2.56118182,2.88878182 5.94463636,2.88878182 8.02390909,4.9686" id="Fill-1" fill="#A42222" mask="url(#mask-2)"></path>
                </g>
                <path d="M86.6066182,19.4577818 C88.2271636,19.7457818 89.7778909,20.5099636 91.0269818,21.7590545 C88.9477091,19.6792364 88.9482545,16.2957818 91.0275273,14.2170545 C89.7778909,15.4661455 88.2271636,16.2297818 86.6066182,16.5177818 C86.4342545,17.4903273 86.4342545,18.4857818 86.6066182,19.4577818" id="Fill-4" fill="#A42222"></path>
                <path d="M83.6673818,19.4577818 C83.3793818,21.0777818 82.6152,22.6285091 81.3661091,23.8781455 C83.4453818,21.7988727 86.8288364,21.7988727 88.9075636,23.8781455 C87.6584727,22.6285091 86.8948364,21.0777818 86.6068364,19.4577818 C85.6348364,19.2848727 84.6393818,19.2848727 83.6673818,19.4577818" id="Fill-6" fill="#A42222"></path>
                <path d="M93.3284182,26.1795273 C91.7084182,25.8915273 90.1576909,25.1273455 88.9080545,23.8782545 C90.9873273,25.9575273 90.9873273,29.3409818 88.9080545,31.4202545 C86.8287818,33.4995273 83.4453273,33.4995273 81.3660545,31.4197091 C79.2867818,29.3409818 79.2867818,25.9575273 81.3660545,23.8782545 C80.1164182,25.1273455 78.5656909,25.8915273 76.9456909,26.1795273 C76.4842364,28.7715273 77.2484182,31.5408 79.2469636,33.5393455 C82.4946,36.7875273 87.7795091,36.7875273 91.0271455,33.5393455 C93.0262364,31.5408 93.7898727,28.7715273 93.3284182,26.1795273" id="Fill-8" fill="#A42222"></path>
                <path d="M86.6066182,19.4577818 C86.8946182,21.0777818 87.6588,22.6285091 88.9078909,23.8781455 C90.1575273,25.1277818 91.7088,25.8914182 93.3282545,26.1794182 C93.0402545,24.5594182 92.2766182,23.0081455 91.0269818,21.7590545 C89.7778909,20.5099636 88.2271636,19.7457818 86.6066182,19.4577818" id="Fill-10" fill="#D94D54"></path>
                <path d="M91.0272545,2.43578182 C87.7796182,-0.811854545 82.4947091,-0.811854545 79.2465273,2.43578182 C78.6612545,3.02105455 78.6618,3.97014545 79.2465273,4.55541818 C79.8323455,5.14069091 80.7808909,5.14069091 81.3661636,4.55541818 C83.4459818,2.4756 86.8288909,2.4756 88.9081636,4.55541818 C90.9874364,6.63469091 90.9874364,10.0176 88.9081636,12.0974182 C90.1572545,10.8483273 91.7085273,10.0841455 93.3290727,9.79614545 C93.7899818,7.20414545 93.0263455,4.43487273 91.0272545,2.43578182" id="Fill-12" fill="#61879F"></path>
                <path d="M86.6066182,16.5179455 C86.8951636,14.8979455 87.6593455,13.3466727 88.9084364,12.0975818 C86.8286182,14.1768545 83.4451636,14.1768545 81.3658909,12.0975818 C82.6155273,13.3472182 83.3791636,14.8979455 83.6671636,16.5179455 C84.6397091,16.6908545 85.6351636,16.6908545 86.6066182,16.5179455" id="Fill-14" fill="#61879F"></path>
                <path d="M71.7046364,21.7588909 C69.6253636,19.6790727 69.6253636,16.2961636 71.7046364,14.2168909 C72.2899091,13.6316182 72.2899091,12.6825273 71.7046364,12.0972545 C71.1193636,11.5125273 70.1702727,11.5119818 69.585,12.0972545 C66.3373636,15.3454364 66.3373636,20.6303455 69.585,23.8779818 C71.5840909,25.8770727 74.3533636,26.6407091 76.9453636,26.1792545 C77.2339091,24.5592545 77.9975455,23.0079818 79.2466364,21.7588909 C77.1673636,23.8387091 73.7844545,23.8381636 71.7046364,21.7588909" id="Fill-16" fill="#61879F"></path>
                <path d="M83.6673818,16.5179455 C82.0468364,16.2299455 80.4961091,15.4657636 79.2470182,14.2166727 C81.3257455,16.2964909 81.3262909,19.6794 79.2470182,21.7586727 C80.4961091,20.5095818 82.0468364,19.7459455 83.6673818,19.4579455 C83.8402909,18.4854 83.8402909,17.4899455 83.6673818,16.5179455" id="Fill-18" fill="#61879F"></path>
                <path d="M91.0278,14.2168364 C92.2768909,12.9672 93.0405273,11.4159273 93.3290727,9.79647273 C91.7085273,10.0844727 90.1572545,10.8481091 88.9081636,12.0972 C87.6590727,13.3462909 86.8954364,14.8981091 86.6068909,16.5181091 C88.2268909,16.2295636 89.7781636,15.4659273 91.0278,14.2168364" id="Fill-20" fill="#DB6E74"></path>
                <path d="M83.6673818,19.4577818 C82.0468364,19.7457818 80.4961091,20.5099636 79.2470182,21.7590545 C77.9973818,23.0081455 77.2337455,24.5594182 76.9457455,26.1794182 C78.5652,25.8914182 80.1164727,25.1277818 81.3661091,23.8781455 C82.6152,22.6285091 83.3793818,21.0777818 83.6673818,19.4577818" id="Fill-22" fill="#DB6E74"></path>
                <path d="M81.3656727,12.0973091 C80.7809455,11.5125818 79.8318545,11.5120364 79.2465818,12.0973091 C78.6613091,12.6825818 78.6613091,13.6316727 79.2465818,14.2169455 C80.4956727,15.4660364 82.0469455,16.2296727 83.6674909,16.5176727 C83.3789455,14.8982182 82.6153091,13.3469455 81.3656727,12.0973091" id="Fill-24" fill="#8BB1C9"></path>
                <path d="M22.4928,5.72230909 C21.3937091,5.72230909 20.5024364,6.61412727 20.5024364,7.71267273 L20.5024364,28.2626727 C20.5024364,29.3617636 21.3937091,30.2535818 22.4928,30.2535818 C23.5924364,30.2535818 24.4831636,29.3617636 24.4831636,28.2626727 L24.4831636,7.71267273 C24.4831636,6.61412727 23.5924364,5.72230909 22.4928,5.72230909" id="Fill-26" fill="#FFFFFF"></path>
                <g id="Group-30" transform="translate(0.000000, 5.430055)">
                    <mask id="mask-4" fill="white">
                        <use xlink:href="#path-3"></use>
                    </mask>
                    <g id="Clip-29"></g>
                    <path d="M15.7300364,0.292254545 L1.99058182,0.292254545 C0.891490909,0.292254545 -0.000327272727,1.18407273 -0.000327272727,2.28261818 C-0.000327272727,3.38225455 0.891490909,4.27352727 1.99058182,4.27352727 L6.87021818,4.27352727 L6.87021818,22.8326182 C6.87021818,23.9317091 7.76149091,24.8235273 8.86058182,24.8235273 C9.95967273,24.8235273 10.8514909,23.9317091 10.8514909,22.8326182 L10.8514909,4.27352727 L15.7300364,4.27352727 C16.8296727,4.27352727 17.7204,3.38225455 17.7204,2.28261818 C17.7204,1.18407273 16.8296727,0.292254545 15.7300364,0.292254545" id="Fill-28" fill="#FFFFFF" mask="url(#mask-4)"></path>
                </g>
                <path d="M41.7467455,26.2722 L31.6460182,26.2722 L31.6460182,7.71310909 C31.6460182,6.61401818 30.7547455,5.7222 29.6556545,5.7222 C28.5560182,5.7222 27.6652909,6.61401818 27.6652909,7.71310909 L27.6652909,28.2625636 C27.6652909,29.3616545 28.5560182,30.2534727 29.6556545,30.2534727 L41.7467455,30.2534727 C42.8463818,30.2534727 43.7371091,29.3616545 43.7371091,28.2625636 C43.7371091,27.1634727 42.8463818,26.2722 41.7467455,26.2722" id="Fill-31" fill="#FFFFFF"></path>
                <path d="M59.7643091,26.2722 L49.6635818,26.2722 L49.6635818,19.9787455 L58.1164909,19.9787455 C59.2155818,19.9787455 60.1068545,19.0869273 60.1068545,17.9878364 C60.1068545,16.8887455 59.2155818,15.9969273 58.1164909,15.9969273 L49.6635818,15.9969273 L49.6635818,9.70347273 L59.7643091,9.70347273 C60.8639455,9.70347273 61.7546727,8.8122 61.7546727,7.71310909 C61.7546727,6.61401818 60.8639455,5.7222 59.7643091,5.7222 L47.6732182,5.7222 C46.5735818,5.7222 45.6828545,6.61401818 45.6828545,7.71310909 L45.6828545,28.2625636 C45.6828545,29.3616545 46.5735818,30.2534727 47.6732182,30.2534727 L59.7643091,30.2534727 C60.8639455,30.2534727 61.7546727,29.3616545 61.7546727,28.2625636 C61.7546727,27.1634727 60.8639455,26.2722 59.7643091,26.2722" id="Fill-33" fill="#FFFFFF"></path>
            </g>
        </g>
    </g>
</svg>