<?xml version="1.0" encoding="UTF-8"?>
<svg width="104px" height="36px" viewBox="0 0 104 36" version="1.1" xmlns="http://www.w3.org/2000/svg" xmlns:xlink="http://www.w3.org/1999/xlink">
    <!-- Generator: Sketch 52.1 (67048) - http://www.bohemiancoding.com/sketch -->
    <title>logo</title>
    <desc>Created with Sketch.</desc>
    <defs>
        <polygon id="path-1" points="0.481690909 0.417939941 12.5792727 0.417939941 12.5792727 17.0615483 0.481690909 17.0615483"></polygon>
    </defs>
    <g id="logo" stroke="none" stroke-width="1" fill="none" fill-rule="evenodd">
        <g id="Logo">
            <g>
                <path d="M22.4929091,5.72236364 C21.3938182,5.72236364 20.5025455,6.61363636 20.5025455,7.71272727 L20.5025455,28.2621818 C20.5025455,29.3618182 21.3938182,30.2530909 22.4929091,30.2530909 C23.5925455,30.2530909 24.4832727,29.3618182 24.4832727,28.2621818 L24.4832727,7.71272727 C24.4832727,6.61363636 23.5925455,5.72236364 22.4929091,5.72236364" id="Fill-1" fill="#1E394A"></path>
                <path d="M15.7298727,5.72236364 L1.99096364,5.72236364 C0.891327273,5.72236364 5.45454545e-05,6.61363636 5.45454545e-05,7.71272727 C5.45454545e-05,8.81236364 0.891327273,9.70363636 1.99096364,9.70363636 L6.87005455,9.70363636 L6.87005455,28.2621818 C6.87005455,29.3618182 7.76132727,30.2530909 8.86041818,30.2530909 C9.96005455,30.2530909 10.8513273,29.3618182 10.8513273,28.2621818 L10.8513273,9.70363636 L15.7298727,9.70363636 C16.8295091,9.70363636 17.7207818,8.81236364 17.7207818,7.71272727 C17.7207818,6.61363636 16.8295091,5.72236364 15.7298727,5.72236364" id="Fill-3" fill="#1E394A"></path>
                <path d="M41.7468,26.2717091 L31.6460727,26.2717091 L31.6460727,7.71316364 C31.6460727,6.61352727 30.7548,5.72225455 29.6557091,5.72225455 C28.5560727,5.72225455 27.6648,6.61352727 27.6648,7.71316364 L27.6648,28.2620727 C27.6648,29.3617091 28.5560727,30.2529818 29.6557091,30.2529818 L41.7468,30.2529818 C42.8464364,30.2529818 43.7371636,29.3617091 43.7371636,28.2620727 C43.7371636,27.1629818 42.8464364,26.2717091 41.7468,26.2717091" id="Fill-5" fill="#1E394A"></path>
                <path d="M59.7643636,26.2717091 L49.6636364,26.2717091 L49.6636364,19.9782545 L58.1165455,19.9782545 C59.2156364,19.9782545 60.1069091,19.0869818 60.1069091,17.9873455 C60.1069091,16.8882545 59.2156364,15.9969818 58.1165455,15.9969818 L49.6636364,15.9969818 L49.6636364,9.70352727 L59.7643636,9.70352727 C60.8634545,9.70352727 61.7547273,8.81225455 61.7547273,7.71316364 C61.7547273,6.61352727 60.8634545,5.72225455 59.7643636,5.72225455 L47.6732727,5.72225455 C46.5736364,5.72225455 45.6823636,6.61352727 45.6823636,7.71316364 L45.6823636,28.2620727 C45.6823636,29.3617091 46.5736364,30.2529818 47.6732727,30.2529818 L59.7643636,30.2529818 C60.8634545,30.2529818 61.7547273,29.3617091 61.7547273,28.2620727 C61.7547273,27.1629818 60.8634545,26.2717091 59.7643636,26.2717091" id="Fill-7" fill="#1E394A"></path>
                <g id="Group-11" transform="translate(91.090909, 9.248236)">
                    <mask id="mask-2" fill="white">
                        <use xlink:href="#path-1"></use>
                    </mask>
                    <g id="Clip-10"></g>
                    <path d="M8.02423636,4.9686 C10.1035091,7.04787273 10.1035091,10.4313273 8.02423636,12.5106 C5.94441818,14.5898727 2.56096364,14.5898727 0.481690909,12.5106 C1.73132727,13.7596909 2.49496364,15.3109636 2.78350909,16.9315091 C5.37550909,17.3924182 8.14478182,16.6287818 10.1438727,14.6296909 C13.3915091,11.3820545 13.3915091,6.0966 10.1433273,2.84896364 C8.14478182,0.850418182 5.37550909,0.0867818182 2.78350909,0.548236364 C2.49496364,2.16769091 1.73132727,3.71896364 0.482236364,4.9686 C2.56150909,2.88878182 5.94441818,2.88878182 8.02423636,4.9686" id="Fill-9" fill="#A42222" mask="url(#mask-2)"></path>
                </g>
                <path d="M87.1524545,19.4577818 C88.7724545,19.7457818 90.3231818,20.5099636 91.5728182,21.7590545 C89.4935455,19.6792364 89.4935455,16.2957818 91.5728182,14.2170545 C90.3237273,15.4661455 88.7724545,16.2297818 87.1524545,16.5177818 C86.9795455,17.4903273 86.9795455,18.4857818 87.1524545,19.4577818" id="Fill-12" fill="#A42222"></path>
                <path d="M84.2126182,19.4577818 C83.9246182,21.0777818 83.1604364,22.6285091 81.9113455,23.8781455 C83.9911636,21.7988727 87.3740727,21.7988727 89.4533455,23.8781455 C88.2037091,22.6285091 87.4406182,21.0777818 87.1526182,19.4577818 C86.1800727,19.2848727 85.1846182,19.2848727 84.2126182,19.4577818" id="Fill-14" fill="#A42222"></path>
                <path d="M93.8742,26.1795818 C92.2536545,25.8915818 90.7029273,25.1274 89.4538364,23.8783091 C91.5325636,25.9575818 91.5331091,29.3410364 89.4538364,31.4197636 C87.3740182,33.4995818 83.9911091,33.4995818 81.9112909,31.4197636 C79.8320182,29.3410364 79.8320182,25.9575818 81.9112909,23.8783091 C80.6622,25.1274 79.1114727,25.8915818 77.4909273,26.1795818 C77.0294727,28.7715818 77.7936545,31.5408545 79.7922,33.5394 C83.0403818,36.7870364 88.3247455,36.7875818 91.5729273,33.5394 C93.5714727,31.5408545 94.3356545,28.7715818 93.8742,26.1795818" id="Fill-16" fill="#A42222"></path>
                <path d="M87.1524545,19.4577818 C87.4404545,21.0777818 88.2040909,22.6285091 89.4537273,23.8781455 C90.7028182,25.1277818 92.2540909,25.8914182 93.8740909,26.1794182 C93.5860909,24.5594182 92.8224545,23.0081455 91.5728182,21.7590545 C90.3231818,20.5099636 88.7724545,19.7457818 87.1524545,19.4577818" id="Fill-18" fill="#690505"></path>
                <path d="M91.5730909,2.43578182 C88.3249091,-0.811854545 83.04,-0.811854545 79.7923636,2.43578182 C79.2070909,3.02105455 79.2070909,3.97014545 79.7923636,4.55541818 C80.3776364,5.14069091 81.3261818,5.14069091 81.9114545,4.55541818 C83.9912727,2.4756 87.3741818,2.4756 89.4534545,4.55541818 C91.5332727,6.63469091 91.5332727,10.0176 89.4534545,12.0974182 C90.7030909,10.8483273 92.2543636,10.0841455 93.8743636,9.79614545 C94.3352727,7.2036 93.5716364,4.43487273 91.5730909,2.43578182" id="Fill-20" fill="#61879F"></path>
                <path d="M87.1524545,16.518 C87.4404545,14.898 88.2046364,13.3467273 89.4537273,12.0976364 C87.3744545,14.1763636 83.9904545,14.1769091 81.9117273,12.0976364 C83.1608182,13.3472727 83.9244545,14.898 84.2124545,16.518 C85.185,16.6909091 86.1804545,16.6909091 87.1524545,16.518" id="Fill-22" fill="#61879F"></path>
                <path d="M72.2502,21.7589455 C70.1709273,19.6791273 70.1709273,16.2962182 72.2502,14.2169455 C72.8354727,13.6316727 72.8354727,12.6825818 72.2502,12.0973091 C71.6649273,11.5125818 70.7158364,11.5120364 70.1305636,12.0973091 C66.8829273,15.3454909 66.8829273,20.6304 70.1305636,23.8780364 C72.1296545,25.8771273 74.8989273,26.6407636 77.4909273,26.1793091 C77.7789273,24.5593091 78.5431091,23.0080364 79.7922,21.7589455 C77.7129273,23.8382182 74.3294727,23.8382182 72.2502,21.7589455" id="Fill-24" fill="#61879F"></path>
                <path d="M84.2126182,16.518 C82.5926182,16.23 81.0413455,15.4658182 79.7922545,14.2167273 C81.8715273,16.2965455 81.8715273,19.6794545 79.7922545,21.7587273 C81.0418909,20.5096364 82.5926182,19.746 84.2126182,19.458 C84.3855273,18.4854545 84.3855273,17.49 84.2126182,16.518" id="Fill-26" fill="#61879F"></path>
                <path d="M91.5730909,14.2168364 C92.8221818,12.9672 93.5858182,11.4159273 93.8743636,9.79647273 C92.2543636,10.0844727 90.7030909,10.8481091 89.4534545,12.0972 C88.2043636,13.3462909 87.4407273,14.8981091 87.1527273,16.5181091 C88.7721818,16.2295636 90.324,15.4659273 91.5730909,14.2168364" id="Fill-28" fill="#3E1215"></path>
                <path d="M84.2126182,19.4577818 C82.5926182,19.7457818 81.0418909,20.5099636 79.7922545,21.7590545 C78.5426182,23.0081455 77.7789818,24.5594182 77.4909818,26.1794182 C79.1109818,25.8914182 80.6622545,25.1277818 81.9113455,23.8781455 C83.1604364,22.6285091 83.9246182,21.0777818 84.2126182,19.4577818" id="Fill-30" fill="#3E1215"></path>
                <path d="M81.9115091,12.0973636 C81.3262364,11.5126364 80.3771455,11.5120909 79.7918727,12.0973636 C79.2066,12.6826364 79.2066,13.6317273 79.7918727,14.217 C81.0409636,15.4660909 82.5927818,16.2297273 84.2127818,16.5177273 C83.9242364,14.8982727 83.1606,13.347 81.9115091,12.0973636" id="Fill-32" fill="#254763"></path>
            </g>
        </g>
    </g>
</svg>