<?xml version="1.0" standalone="no"?>
<!DOCTYPE svg PUBLIC "-//W3C//DTD SVG 20010904//EN"
 "http://www.w3.org/TR/2001/REC-SVG-20010904/DTD/svg10.dtd">
<svg version="1.0" xmlns="http://www.w3.org/2000/svg"
 width="1257.000000pt" height="1257.000000pt" viewBox="0 0 1257.000000 1257.000000"
 preserveAspectRatio="xMidYMid meet">
<metadata>
Created by potrace 1.11, written by Peter Selinger 2001-2013
</metadata>
<g transform="translate(0.000000,1257.000000) scale(0.100000,-0.100000)"
fill="#000000" stroke="none">
<path d="M6089 12486 c-2 -2 -38 -6 -79 -9 -396 -31 -813 -163 -1178 -374 -54
-31 -111 -66 -128 -79 -17 -13 -34 -24 -39 -24 -4 0 -20 -10 -35 -22 -15 -13
-37 -30 -49 -38 -71 -48 -205 -161 -294 -247 -141 -137 -186 -227 -194 -388
-4 -87 -2 -110 19 -176 73 -226 280 -372 517 -363 134 5 242 56 368 173 402
377 906 553 1448 508 44 -4 92 -10 105 -12 14 -3 39 -8 57 -10 44 -7 206 -49
283 -75 67 -22 342 -154 363 -174 7 -6 38 -28 69 -49 75 -48 176 -133 259
-216 344 -346 537 -817 533 -1301 -1 -150 -8 -224 -30 -332 -3 -15 -7 -39 -9
-55 -13 -95 -102 -339 -173 -473 -109 -206 -303 -441 -472 -570 -25 -19 -47
-37 -50 -41 -6 -6 -109 -76 -155 -105 -147 -91 -415 -197 -560 -220 -22 -3
-42 -7 -45 -9 -6 -4 -60 -12 -155 -24 -79 -9 -359 -7 -420 3 -214 38 -334 70
-474 128 -86 36 -249 118 -276 140 -5 4 -47 34 -92 66 -87 61 -108 78 -223
185 -70 66 -173 127 -241 144 -51 12 -189 14 -243 3 -88 -18 -188 -73 -255
-141 -109 -111 -157 -238 -148 -394 8 -145 55 -245 179 -374 231 -241 398
-557 464 -876 31 -153 39 -237 38 -405 0 -147 -8 -238 -30 -335 -8 -38 -17
-81 -20 -95 -14 -74 -77 -246 -132 -360 -173 -363 -484 -673 -852 -852 -152
-74 -364 -139 -525 -162 -22 -3 -57 -9 -78 -12 -20 -3 -94 -7 -165 -8 -219 -5
-418 26 -622 94 -259 87 -507 239 -699 429 -278 274 -444 582 -520 962 -39
195 -46 456 -16 622 3 15 10 54 15 88 39 220 151 485 290 687 66 96 78 111
183 225 91 100 132 165 158 248 103 337 -151 676 -501 668 -187 -4 -284 -61
-490 -289 -68 -75 -212 -269 -275 -370 -127 -205 -240 -454 -310 -685 -40
-133 -38 -124 -69 -280 -42 -211 -51 -311 -51 -560 0 -246 9 -351 46 -540 21
-108 74 -317 88 -350 5 -11 19 -49 31 -85 32 -93 96 -242 143 -335 39 -76 159
-278 190 -319 161 -217 176 -236 308 -373 116 -120 237 -226 364 -319 409
-300 912 -492 1420 -541 178 -17 547 -8 700 17 77 13 98 13 90 -1 -4 -5 -8
-20 -9 -32 -2 -12 -6 -44 -10 -72 -4 -27 -9 -68 -12 -90 -9 -77 -12 -461 -4
-550 76 -814 461 -1520 1105 -2025 184 -145 376 -257 650 -380 134 -60 425
-145 600 -174 87 -15 108 -18 205 -32 71 -10 477 -13 560 -4 134 14 183 21
284 41 354 69 675 193 969 374 101 62 229 150 260 180 12 11 33 28 46 37 13 9
57 47 98 84 393 355 663 769 827 1270 15 44 28 89 30 100 2 10 9 39 16 64 11
42 14 53 25 105 12 52 28 143 39 215 28 183 28 639 1 781 -25 126 -25 126 61
110 135 -25 542 -36 717 -18 610 60 1201 325 1654 739 59 55 155 152 230 235
19 21 72 88 119 149 321 425 517 923 571 1454 16 150 8 555 -12 671 -2 13 -9
56 -15 94 -7 39 -13 75 -14 80 -1 6 -8 37 -15 70 -20 97 -85 315 -116 390 -60
148 -86 205 -136 301 -69 133 -139 249 -222 364 -33 47 -63 87 -67 90 -3 3
-37 43 -76 90 -185 221 -441 440 -699 595 -274 165 -609 299 -880 351 -11 2
-31 6 -45 9 -59 12 -147 27 -170 30 -270 30 -596 28 -810 -5 -98 -15 -93 -17
-86 38 3 26 8 58 11 72 20 98 27 521 12 670 -7 65 -38 266 -51 325 -45 210
-161 543 -237 678 -5 10 -26 48 -46 85 -124 230 -275 433 -472 637 -376 389
-883 674 -1406 791 -94 21 -200 40 -274 49 -30 4 -63 9 -75 12 -24 5 -481 14
-487 9z m3726 -4380 c186 -20 411 -84 584 -166 108 -52 240 -130 275 -162 11
-10 23 -18 28 -18 11 0 144 -114 219 -189 144 -145 257 -305 349 -496 104
-216 154 -398 178 -650 13 -134 3 -338 -23 -480 -65 -353 -240 -694 -483 -942
-124 -127 -173 -168 -301 -254 -253 -170 -536 -273 -840 -306 -151 -17 -420
-2 -578 31 -332 70 -648 242 -899 491 -246 244 -391 489 -487 825 -44 153 -61
280 -61 475 -1 186 10 285 45 435 63 265 186 515 356 727 46 58 208 223 273
278 69 59 249 173 351 222 136 66 308 127 424 149 11 2 31 6 45 9 53 10 87 15
155 21 39 3 71 7 72 8 5 5 261 -2 318 -8z m-3948 -1340 c69 -14 205 -21 408
-21 222 0 307 5 431 25 33 6 63 10 67 10 5 0 6 -18 2 -40 -9 -51 -13 -85 -30
-255 -7 -61 -7 -320 -1 -405 7 -92 16 -171 31 -268 l7 -42 -34 4 c-18 2 -71 9
-118 15 -47 7 -107 13 -135 16 -66 5 -371 6 -415 1 -19 -3 -69 -7 -110 -11
-41 -3 -101 -10 -134 -16 -32 -6 -60 -8 -62 -6 -2 2 4 55 13 118 28 190 24
623 -7 815 -6 33 -10 63 -10 68 0 8 31 5 97 -8z m663 -2005 c130 -20 159 -26
294 -66 81 -24 237 -89 316 -133 36 -19 74 -40 85 -46 26 -14 147 -97 161
-110 7 -6 34 -29 62 -50 73 -57 230 -220 290 -301 28 -38 56 -75 61 -81 35
-42 139 -240 181 -346 91 -228 132 -431 133 -668 0 -85 -2 -180 -6 -210 -61
-556 -359 -1048 -821 -1352 -197 -130 -500 -250 -689 -274 -23 -3 -48 -7 -55
-9 -20 -7 -190 -18 -272 -19 -76 0 -224 11 -276 20 -139 25 -317 74 -404 111
-174 74 -374 192 -490 290 -138 115 -313 319 -404 470 -132 221 -231 521 -253
768 -14 150 -6 383 17 491 5 27 12 60 14 74 36 220 177 525 344 745 70 91 277
293 369 358 191 135 427 249 608 292 97 23 212 45 270 50 39 4 72 9 73 10 9 8
324 -4 392 -14z"/>
</g>
</svg>
