<?xml version="1.0" encoding="UTF-8"?>
<svg width="120px" height="120px" viewBox="0 0 120 120" version="1.1" xmlns="http://www.w3.org/2000/svg" xmlns:xlink="http://www.w3.org/1999/xlink">
    <!-- Generator: Sketch 52.1 (67048) - http://www.bohemiancoding.com/sketch -->
    <title>community-git</title>
    <desc>Created with Sketch.</desc>
    <defs>
        <polygon id="path-1" points="0.000183333333 0.232464756 109.602167 0.232464756 109.602167 84.6189468 0.000183333333 84.6189468"></polygon>
    </defs>
    <g id="community-git" stroke="none" stroke-width="1" fill="none" fill-rule="evenodd">
        <g id="Group-48" transform="translate(5.000000, 11.000000)">
            <path d="M85.9932944,86.1683778 C85.9932944,92.1144889 72.2200722,96.9343222 55.2305722,96.9343222 C38.23985,96.9343222 24.4672389,92.1144889 24.4672389,86.1683778 C24.4672389,80.2222667 38.23985,75.4012111 55.2305722,75.4012111 C72.2200722,75.4012111 85.9932944,80.2222667 85.9932944,86.1683778" id="Fill-1" fill="#9DDAEF"></path>
            <path d="M71.0681889,82.7075944 C71.0681889,82.7075944 65.5468,82.25415 63.4904111,85.7692611 C63.7024667,85.0884833 63.7409667,84.0288167 61.6363,84.5067056 C61.6363,84.5067056 55.8955222,85.3268167 55.6223556,92.0252056 L55.5722444,96.9312056 C57.4569111,96.9244833 59.3006333,96.8578722 61.0899667,96.7368722 L61.0899667,91.7520389 C61.0899667,91.7520389 61.2262444,87.8873722 63.2068556,86.3437056 C62.9080222,87.0428167 62.7295778,87.86965 62.7295778,88.8578167 L62.7295778,96.6109833 C64.5305222,96.4527056 66.2654667,96.2382056 67.9240222,95.9748167 L67.9240222,88.9953167 C67.9240222,88.9953167 68.1978,85.7142611 71.2056889,84.6209833 C71.2056889,84.6209833 72.9815778,83.3902056 71.0681889,82.7075944" id="Fill-3" fill="#7DBAE5"></path>
            <path d="M46.8729556,96.5292167 L46.8729556,88.8579389 C46.8729556,87.8697722 46.6945111,87.0429389 46.3962889,86.3438278 C48.3769,87.8874944 48.5131778,91.7521611 48.5131778,91.7521611 L48.5131778,96.6734389 C50.2988444,96.8133833 52.1425667,96.8983278 54.0302889,96.9239944 L53.9807889,92.0253278 C53.7076222,85.3269389 47.9662333,84.5068278 47.9662333,84.5068278 C45.8627889,84.02955 45.9000667,85.0873833 46.1121222,85.7681611 C44.0551222,82.2542722 38.5343444,82.7077167 38.5343444,82.7077167 C36.6203444,83.3903278 38.3974556,84.6211056 38.3974556,84.6211056 C41.4053444,85.7143833 41.6785111,88.9954389 41.6785111,88.9954389 L41.6785111,95.8343833 C43.3315667,96.11855 45.0689556,96.3513833 46.8729556,96.5292167" id="Fill-5" fill="#7DBAE5"></path>
            <path d="M20.0890556,54.50995 L19.2011111,57.6033944 C19.2011111,57.6033944 18.9701111,58.7223389 20.0236667,58.9203389 C21.1236667,58.89895 21.0338333,57.8698389 20.9568333,57.5355611 L20.0890556,54.50995 Z" id="Fill-7" fill="#9DDBF1"></path>
            <g id="Group-11" transform="translate(0.000000, 0.378889)">
                <mask id="mask-2" fill="white">
                    <use xlink:href="#path-1"></use>
                </mask>
                <g id="Clip-10"></g>
                <path d="M109.521072,41.15925 L109.60235,40.7571389 C100.577461,38.9525278 91.3166833,38.9341944 85.7140167,39.1670278 C86.63435,35.8511389 86.9111833,32.0353611 86.9111833,27.7801944 C86.9111833,21.6776389 84.6182944,16.7954722 80.8960167,13.0805278 C81.54685,10.9813611 82.41585,6.31797222 80.0282389,0.34925 C80.0282389,0.34925 75.8176833,-0.987861111 66.2929056,5.38663889 C62.5614611,4.45469444 58.5904611,3.99391667 54.61335,3.99391667 C50.2377944,3.99391667 45.8164056,4.55125 41.6926278,5.68241667 C31.8622944,-1.02452778 27.5234056,0.34925 27.5234056,0.34925 C24.6902944,7.43202778 26.4417389,12.6759722 26.9740167,13.97825 C23.6446833,17.5709722 21.6121278,22.1573611 21.6121278,27.7801944 C21.6121278,32.0255833 22.0961278,35.8334167 23.2767944,39.1431944 C17.62585,38.9378611 8.70240556,39.0166944 0.000183333333,40.7571389 L0.08085,41.15925 C8.83501667,39.4084167 17.8140722,39.3473056 23.4307944,39.5599722 C23.6905167,40.2450278 23.9801833,40.9099167 24.3046833,41.5521944 C18.7509056,41.73125 9.26890556,42.4389167 0.181072222,45.0025278 L0.292294444,45.3966944 C9.45162778,42.8135278 19.01735,42.1235833 24.51735,41.9555278 C27.8356833,48.1405833 34.3776278,52.1354167 46.0162389,53.3900278 C44.3637944,54.4998056 42.6795722,56.3869167 41.9957389,59.5799722 C39.7450167,60.6561389 32.6194611,63.2845278 28.3441278,55.9310278 C28.3441278,55.9310278 25.9510167,51.5554722 21.3701278,51.2126389 C21.3701278,51.2126389 16.9267389,51.1448056 21.0627389,53.9815833 C21.0627389,53.9815833 24.0370167,55.3828611 26.0879056,60.6481944 C26.0879056,60.6481944 28.7639611,69.6284722 41.6785722,66.7470833 L41.6785722,76.02375 C41.6785722,76.02375 41.4054056,79.3048056 38.3975167,80.3980833 C38.3975167,80.3980833 36.6204056,81.6288611 38.5344056,82.3114722 C38.5344056,82.3114722 46.8730167,82.9953056 46.8730167,76.1606389 L46.8730167,66.0455278 C46.8730167,66.0455278 46.5430167,62.0335833 48.5126278,60.6396389 L48.5126278,77.2539167 C48.5126278,77.2539167 48.3769611,81.2181944 46.3260722,82.7221389 C46.3260722,82.7221389 44.9590167,85.1818611 47.9662944,84.49925 C47.9662944,84.49925 53.7070722,83.6791389 53.98085,76.98075 L54.1116278,60.16725 L55.4909056,60.16725 L55.6222944,76.98075 C55.8954611,83.6791389 61.63685,84.49925 61.63685,84.49925 C64.6429056,85.1818611 63.2764611,82.7221389 63.2764611,82.7221389 C61.2261833,81.2181944 61.0899056,77.2539167 61.0899056,77.2539167 L61.0899056,60.7826389 C63.0595167,62.3165278 62.7301278,66.0455278 62.7301278,66.0455278 L62.7301278,76.1606389 C62.7301278,82.9953056 71.0681278,82.3114722 71.0681278,82.3114722 C72.9815167,81.6288611 71.2056278,80.3980833 71.2056278,80.3980833 C68.1977389,79.3048056 67.9245722,76.02375 67.9245722,76.02375 L67.9245722,62.7644722 C67.9245722,57.5938611 65.7471833,54.8554722 63.6180722,53.4101944 C76.0297389,52.1794167 81.9856278,48.17175 84.7307389,41.9445278 C90.1671833,42.0936389 99.9510722,42.7560833 109.309628,45.3966944 L109.42085,45.0025278 C100.115461,42.3778056 90.39635,41.6988611 84.9049056,41.53875 C85.1652389,40.9099167 85.3919611,40.2554167 85.5936278,39.5825833 C91.1577944,39.3448611 100.460739,39.3473056 109.521072,41.15925" id="Fill-9" fill="#1F1E1E" mask="url(#mask-2)"></path>
            </g>
            <path d="M74.7706667,27.8717389 C77.4442778,30.2935722 79.0081111,33.21835 79.0081111,36.3692389 C79.0081111,51.0817389 68.0398889,51.4807944 54.5117222,51.4807944 C40.9817222,51.4807944 30.0147222,49.44335 30.0147222,36.3692389 C30.0147222,33.2391278 31.5571667,30.3326833 34.1977778,27.9206278 C38.6014444,23.9007389 46.0557778,26.0292389 54.5117222,26.0292389 C62.9340556,26.0292389 70.3602778,23.87935 74.7706667,27.8717389" id="Fill-12" fill="#F3C9B1"></path>
            <path d="M46.3656722,37.1195611 C46.3656722,41.1718389 44.0837833,44.4565611 41.2690056,44.4565611 C38.4542278,44.4565611 36.1711167,41.1718389 36.1711167,37.1195611 C36.1711167,33.0672833 38.4542278,29.7837833 41.2690056,29.7837833 C44.0837833,29.7837833 46.3656722,33.0672833 46.3656722,37.1195611" id="Fill-14" fill="#FEFEFE"></path>
            <path d="M44.7304611,37.2114722 C44.7304611,39.9125833 43.2081833,42.1015833 41.3320722,42.1015833 C39.4547389,42.1015833 37.9342944,39.9125833 37.9342944,37.2114722 C37.9342944,34.5091389 39.4547389,32.3189167 41.3320722,32.3189167 C43.2081833,32.3189167 44.7304611,34.5091389 44.7304611,37.2114722" id="Fill-16" fill="#AC5B51"></path>
            <path d="M73.7108167,37.1195611 C73.7108167,41.1718389 71.4289278,44.4565611 68.6129278,44.4565611 C65.7987611,44.4565611 63.5162611,41.1718389 63.5162611,37.1195611 C63.5162611,33.0672833 65.7987611,29.7837833 68.6129278,29.7837833 C71.4289278,29.7837833 73.7108167,33.0672833 73.7108167,37.1195611" id="Fill-18" fill="#FEFEFE"></path>
            <path d="M72.0743833,37.2114722 C72.0743833,39.9125833 70.5527167,42.1015833 68.6759944,42.1015833 C66.7998833,42.1015833 65.2782167,39.9125833 65.2782167,37.2114722 C65.2782167,34.5091389 66.7998833,32.3189167 68.6759944,32.3189167 C70.5527167,32.3189167 72.0743833,34.5091389 72.0743833,37.2114722" id="Fill-20" fill="#AC5B51"></path>
            <path d="M55.8584889,43.6352889 C55.8584889,44.3392889 55.2877111,44.9100667 54.5837111,44.9100667 C53.8791,44.9100667 53.3089333,44.3392889 53.3089333,43.6352889 C53.3089333,42.9312889 53.8791,42.3605111 54.5837111,42.3605111 C55.2877111,42.3605111 55.8584889,42.9312889 55.8584889,43.6352889" id="Fill-22" fill="#AC5B51"></path>
            <path d="M51.6138333,46.8579222 C51.5386667,46.6440333 51.6511111,46.4105889 51.8637778,46.3354222 C52.0770556,46.2596444 52.3117222,46.3720889 52.3868889,46.5847556 C52.7144444,47.5105889 53.5926111,48.1327 54.5728333,48.1327 C55.5530556,48.1327 56.4312222,47.5105889 56.7593889,46.5847556 C56.8345556,46.3708667 57.0686111,46.2596444 57.2825,46.3354222 C57.4957778,46.4105889 57.607,46.6440333 57.5318333,46.8579222 C57.0887778,48.1100889 55.8989444,48.9515889 54.5728333,48.9515889 C53.2467222,48.9515889 52.0581111,48.1100889 51.6138333,46.8579222" id="Fill-24" fill="#AC5B51"></path>
            <path d="M23.3534889,52.68615 C23.3534889,53.0265389 22.9550444,53.3009278 22.4643222,53.3009278 C21.9736,53.3009278 21.5757667,53.0265389 21.5757667,52.68615 C21.5757667,52.3457611 21.9736,52.07015 22.4643222,52.07015 C22.9550444,52.07015 23.3534889,52.3457611 23.3534889,52.68615" id="Fill-26" fill="#9DDAEF"></path>
            <path d="M25.8146778,54.0528389 C25.8146778,54.3932278 25.4162333,54.6688389 24.9255111,54.6688389 C24.4347889,54.6688389 24.0369556,54.3932278 24.0369556,54.0528389 C24.0369556,53.7136722 24.4347889,53.4380611 24.9255111,53.4380611 C25.4162333,53.4380611 25.8146778,53.7136722 25.8146778,54.0528389" id="Fill-28" fill="#9DDAEF"></path>
            <path d="M27.3185611,55.8312333 C27.3185611,56.1704 26.9207278,56.4460111 26.4293944,56.4460111 C25.9386722,56.4460111 25.54145,56.1704 25.54145,55.8312333 C25.54145,55.4908444 25.9386722,55.2152333 26.4293944,55.2152333 C26.9207278,55.2152333 27.3185611,55.4908444 27.3185611,55.8312333" id="Fill-30" fill="#9DDAEF"></path>
            <path d="M28.6851889,57.8818167 C28.6851889,58.2222056 28.2879667,58.4978167 27.7972444,58.4978167 C27.3059111,58.4978167 26.9080778,58.2222056 26.9080778,57.8818167 C26.9080778,57.5414278 27.3059111,57.2658167 27.7972444,57.2658167 C28.2879667,57.2658167 28.6851889,57.5414278 28.6851889,57.8818167" id="Fill-32" fill="#9DDAEF"></path>
            <path d="M30.1897444,59.7963056 C30.1897444,60.1354722 29.7919111,60.4110833 29.3011889,60.4110833 C28.8104667,60.4110833 28.4120222,60.1354722 28.4120222,59.7963056 C28.4120222,59.4559167 28.8104667,59.1803056 29.3011889,59.1803056 C29.7919111,59.1803056 30.1897444,59.4559167 30.1897444,59.7963056" id="Fill-34" fill="#9DDAEF"></path>
            <path d="M32.2408778,61.4362833 C32.2408778,61.7766722 31.8430444,62.0522833 31.3517111,62.0522833 C30.8609889,62.0522833 30.4637667,61.7766722 30.4637667,61.4362833 C30.4637667,61.0971167 30.8609889,60.8215056 31.3517111,60.8215056 C31.8430444,60.8215056 32.2408778,61.0971167 32.2408778,61.4362833" id="Fill-36" fill="#9DDAEF"></path>
            <path d="M35.112,62.5307833 C35.112,62.86995 34.7141667,63.1455611 34.2234444,63.1455611 C33.7321111,63.1455611 33.3342778,62.86995 33.3342778,62.5307833 C33.3342778,62.1903944 33.7321111,61.9147833 34.2234444,61.9147833 C34.7141667,61.9147833 35.112,62.1903944 35.112,62.5307833" id="Fill-38" fill="#9DDAEF"></path>
            <path d="M37.9694333,62.5307833 C37.9694333,62.86995 37.5716,63.1455611 37.0808778,63.1455611 C36.5895444,63.1455611 36.1917111,62.86995 36.1917111,62.5307833 C36.1917111,62.1903944 36.5895444,61.9147833 37.0808778,61.9147833 C37.5716,61.9147833 37.9694333,62.1903944 37.9694333,62.5307833" id="Fill-40" fill="#9DDAEF"></path>
            <path d="M40.8698278,62.0545444 C40.8698278,62.3949333 40.4719944,62.6705444 39.9812722,62.6705444 C39.4899389,62.6705444 39.0921056,62.3949333 39.0921056,62.0545444 C39.0921056,61.7141556 39.4899389,61.4385444 39.9812722,61.4385444 C40.4719944,61.4385444 40.8698278,61.7141556 40.8698278,62.0545444" id="Fill-42" fill="#9DDAEF"></path>
            <path d="M40.43985,34.8326611 C40.43985,35.2543278 40.0976278,35.59655 39.6759611,35.59655 C39.2542944,35.59655 38.9120722,35.2543278 38.9120722,34.8326611 C38.9120722,34.4109944 39.2542944,34.0687722 39.6759611,34.0687722 C40.0976278,34.0687722 40.43985,34.4109944 40.43985,34.8326611" id="Fill-44" fill="#FEFEFE"></path>
            <path d="M67.7840778,34.8326611 C67.7840778,35.2543278 67.4412444,35.59655 67.0201889,35.59655 C66.5985222,35.59655 66.2563,35.2543278 66.2563,34.8326611 C66.2563,34.4109944 66.5985222,34.0687722 67.0201889,34.0687722 C67.4412444,34.0687722 67.7840778,34.4109944 67.7840778,34.8326611" id="Fill-46" fill="#FEFEFE"></path>
        </g>
    </g>
</svg>