<?xml version="1.0" encoding="UTF-8"?>
<svg width="30px" height="30px" viewBox="0 0 30 30" version="1.1" xmlns="http://www.w3.org/2000/svg" xmlns:xlink="http://www.w3.org/1999/xlink">
    <!-- Generator: Sketch 52.1 (67048) - http://www.bohemiancoding.com/sketch -->
    <title>icon-homebrew-blue</title>
    <desc>Created with Sketch.</desc>
    <defs>
        <polygon id="path-1" points="0 0 20 0 20 30 0 30"></polygon>
    </defs>
    <g id="icon-homebrew-blue" stroke="none" stroke-width="1" fill="none" fill-rule="evenodd">
        <g id="Group-3" transform="translate(5.000000, 0.000000)">
            <mask id="mask-2" fill="white">
                <use xlink:href="#path-1"></use>
            </mask>
            <g id="Clip-2"></g>
            <path d="M17.1368625,23.0720247 C16.732618,23.1553244 16.3303883,23.2480232 15.8333489,23.357288 C15.6466925,20.9714384 15.4669098,18.6751154 15.282031,16.3125286 C15.5028189,16.2803366 15.7083187,16.2467348 15.9147667,16.2208872 C16.8793359,16.1006959 17.0243946,16.206906 17.1254853,17.1496379 C17.3090604,18.8613355 17.4658518,20.5760879 17.6743145,22.2848482 C17.7322668,22.7600913 17.5777272,22.9812057 17.1368625,23.0720247 M13.0024526,13.2300866 C12.8822814,13.2707378 12.779413,13.4667095 12.7367486,13.610751 C12.5350412,14.2913649 12.1278339,14.7546242 11.4001702,14.8568396 C10.6522409,14.9621098 10.1185813,14.6388975 9.71836629,14.0090388 C9.6158534,13.8476089 9.32834327,13.7095593 9.12948012,13.7142589 C6.55954721,13.7739433 4.06178811,13.3392339 1.5944866,12.6805904 C0.996712033,12.5210403 0.579786787,11.9944545 0.553477121,11.3974928 C0.525389775,10.7572951 0.89562129,10.212146 1.51591314,10.0045429 C1.69996229,9.94297866 1.8964552,9.91783601 2.10551039,9.87178031 C2.50145901,8.59185488 3.39610616,8.00311738 4.43296772,8.30600408 C5.47054036,8.60912576 5.90062044,9.56818867 5.55278769,10.8629177 C5.84717152,11.0281073 6.03572413,11.0426759 6.19690046,10.6509675 C6.48713637,9.94603337 7.06381581,9.58252233 7.82892933,9.61694662 C8.59190965,9.6513709 9.1184585,10.0630524 9.3720742,10.7852575 C9.57709997,11.368943 9.76660068,11.9581504 10.0672656,12.5347865 C10.0121576,11.8569924 9.93299154,11.1800206 9.90857806,10.501169 C9.87977964,9.70412347 10.3371175,9.03890062 11.0556558,8.7468229 C11.7429069,8.46731651 12.5766389,8.61382533 13.0741523,9.1589744 C13.3187611,9.42696686 13.4811226,9.76897741 13.7167244,10.1331934 C13.8890409,10.073274 14.1048513,9.9950263 14.3226763,9.92300553 C15.138513,9.65360319 15.9925105,10.0906624 16.1926773,10.8783088 C16.3985327,11.6880431 15.8745911,12.4376231 15.0361186,12.6280728 C14.3475639,12.7844507 13.6720454,13.0041552 13.0024526,13.2300866 M10.8712511,17.7725647 C10.4569331,17.7866634 10.1179888,17.4230349 10.1588754,17.009591 C10.2022508,16.5720619 10.465466,16.3434283 10.9081083,16.3477753 C11.3090345,16.351535 11.6050775,16.6766271 11.5929892,17.1475231 C11.5449919,17.5029274 11.3131824,17.7576436 10.8712511,17.7725647 M4.74631348,0.755806895 C6.67355576,1.47307739 7.78128751,3.16656419 7.47363033,4.86909765 C5.6820843,4.55763424 4.35237956,2.57524193 4.74631348,0.755806895 M19.9771213,22.919054 C19.7515929,20.5645739 19.4308994,18.2183181 19.2448356,15.8612533 C19.1238348,14.3280215 18.2762369,13.8511336 16.8813506,13.8917848 C16.3002862,13.9087032 15.7201699,13.9544064 15.1103071,13.9885957 C15.0831679,13.6982804 15.0602951,13.4544906 15.0364742,13.2010668 C16.0933643,12.9335443 16.7524095,12.3304731 16.7691197,11.2720145 C16.7872521,10.1313136 16.0671731,9.51919575 15.0171567,9.25566787 C14.9643004,7.62574263 14.5077921,6.22950306 13.1799835,5.19853687 C11.7675574,4.10189431 10.3183926,4.47785919 8.84635493,5.11923178 C8.85654696,4.02317667 9.14725692,3.54147167 10.411543,2.43131787 C10.2088875,2.19774969 10.0112095,1.95795459 9.80073213,1.72979091 C9.49129728,1.39447723 9.18861761,1.34489686 8.88522687,1.75281876 C8.55256366,2.20033445 8.20330877,2.63563129 7.9243315,2.99503021 C7.56263285,2.48054578 7.28365558,1.85045214 6.80581516,1.45886122 C6.10327597,0.883164998 5.25864089,0.477827863 4.47468395,0 C4.39859924,0.128415504 4.28850159,0.248019331 4.25164435,0.386773869 C3.88591629,1.76069052 4.20815044,2.97634946 5.1353884,4.04620452 C5.24358986,4.17086037 5.34799894,4.29868843 5.47255506,4.44695958 C3.07173879,4.9112762 1.63738795,6.50290002 1.44753171,8.90754789 C1.41837776,9.27740334 1.32143494,9.47548983 0.979527792,9.66734941 C-0.352428674,10.4146971 -0.314504831,12.2884121 1.02314021,13.028123 C1.174006,13.1115402 1.33648596,13.1740443 1.48379639,13.241718 C1.48379639,13.3565048 1.48853687,13.434165 1.48320383,13.5112378 C1.14603716,18.2951559 0.813848004,23.079309 0.461630314,27.8621697 C0.427024808,28.3316559 0.491969388,28.6390071 1.01223711,28.7525015 C2.52966487,29.0831157 4.04211512,29.4355827 5.55788371,29.7738336 C5.94494393,29.8600706 6.33686314,29.9251595 6.72653063,30 L7.55611469,30 L8.97825879,30 L9.68933085,30 C9.82490858,29.956764 9.95799757,29.887328 10.0965381,29.8741693 C12.0506826,29.6886541 13.9509042,29.3003529 15.7481388,28.4811019 C16.1073487,28.3174397 16.2443486,28.1240527 16.1890034,27.7216528 C16.0995269,27.0719385 16.0754689,26.4132951 16.0280641,25.8128087 C16.8795729,25.6228289 17.6847435,25.5102744 18.4429833,25.2587304 C19.7204243,24.8353 20.1036921,24.2416279 19.9771213,22.919054" id="Fill-1" fill="#61879F" mask="url(#mask-2)"></path>
        </g>
    </g>
</svg>