<?xml version="1.0" encoding="UTF-8"?>
<svg width="30px" height="30px" viewBox="0 0 30 30" version="1.1" xmlns="http://www.w3.org/2000/svg" xmlns:xlink="http://www.w3.org/1999/xlink">
    <!-- Generator: Sketch 52.1 (67048) - http://www.bohemiancoding.com/sketch -->
    <title>icon-slack-white</title>
    <desc>Created with Sketch.</desc>
    <g id="icon-slack-white" stroke="none" stroke-width="1" fill="none" fill-rule="evenodd">
        <polygon id="Fill-2" fill="#FFFFFF" points="12.6264889 13.8389968 16.0700444 12.6855048 17.1841238 16.011854 13.7405683 17.165346"></polygon>
        <path d="M22.251854,17.1136762 L20.580219,17.6706127 L21.1579968,19.4041524 C21.3851873,20.1057397 21.0137587,20.8690254 20.3121714,21.0962159 C20.1675206,21.1374857 20.0026476,21.1785492 19.8579968,21.1581206 C19.3216952,21.1374857 18.8058222,20.7866921 18.6199016,20.2499778 L18.0423302,18.5168508 L14.5960921,19.6722 L15.1738698,21.4057397 C15.4010603,22.1071206 15.0296317,22.8706127 14.3280444,23.0978032 C14.1833937,23.1388667 14.0185206,23.1801365 13.8738698,23.1597079 C13.3375683,23.1388667 12.8216952,22.7882794 12.6357746,22.2515651 L12.0582032,20.5184381 L10.3867746,21.0753746 C10.2423302,21.1166444 10.0772508,21.1581206 9.93280635,21.1374857 C9.39629841,21.1166444 8.8804254,20.7658508 8.69471111,20.2295492 C8.46772698,19.5277556 8.83915556,18.7644698 9.54053651,18.5372794 L11.2121714,17.9801365 L10.0978857,14.6581206 L8.42645714,15.2152635 C8.2820127,15.2565333 8.11693333,15.2975968 7.97248889,15.2771683 C7.43598095,15.2565333 6.92010794,14.9057397 6.73439365,14.3692317 C6.50740952,13.6676444 6.8788381,12.9041524 7.58021905,12.6771683 L9.25185397,12.1200254 L8.67407619,10.3864857 C8.44709206,9.68510476 8.81831429,8.9216127 9.52010794,8.69462857 C10.2216952,8.46764444 10.984981,8.83886667 11.2121714,9.54066032 L11.7899492,11.2739937 L15.235981,10.1184381 L14.6579968,8.38510476 C14.431219,7.68351746 14.8024413,6.9200254 15.5042349,6.69304127 C16.2056159,6.46585079 16.9691079,6.83748571 17.1962984,7.53907302 L17.7740762,9.27240635 L19.4452984,8.71526349 C20.1470921,8.48827937 20.9105841,8.85970794 21.1375683,9.56108889 C21.364346,10.2628825 20.9929175,11.0263746 20.2915365,11.2533587 L18.6199016,11.8105016 L19.7343937,15.1325175 L21.4056159,14.575581 C22.1074095,14.3485968 22.8709016,14.719819 23.0978857,15.4216127 C23.3246635,16.1229937 22.9532349,16.8864857 22.251854,17.1136762 M26.7294254,11.3565333 C24.067727,2.48351746 20.2294254,0.420025397 11.3566159,3.08193016 C2.4836,5.74362857 0.420107937,9.58193016 3.0820127,18.454946 C5.74391746,27.3279619 9.5820127,29.391454 18.4550286,26.7295492 C27.3280444,24.0674381 29.3915365,20.2295492 26.7294254,11.3565333" id="Fill-3" fill="#FFFFFF"></path>
    </g>
</svg>