<svg width="120" height="120" viewBox="0 0 120 120" xmlns="http://www.w3.org/2000/svg" xmlns:xlink="http://www.w3.org/1999/xlink"><defs><path id="a" d="M0 .232h109.602V84.62H0z"/></defs><g fill="none" fill-rule="evenodd"><path d="M90.993 97.168c0 5.946-13.773 10.766-30.762 10.766-16.991 0-30.764-4.82-30.764-10.766S43.24 86.401 60.231 86.401c16.99 0 30.762 4.821 30.762 10.767" fill="#9DDAEF"/><path d="M76.068 93.708s-5.521-.454-7.578 3.061c.212-.68.251-1.74-1.854-1.262 0 0-5.74.82-6.014 7.518l-.05 4.906a86.44 86.44 0 005.518-.194v-4.985s.136-3.865 2.117-5.408c-.299.699-.477 1.526-.477 2.514v7.753c1.8-.158 3.535-.373 5.194-.636v-6.98s.274-3.28 3.282-4.374c0 0 1.776-1.23-.138-1.913M51.873 107.53v-7.672c0-.988-.178-1.815-.477-2.514 1.98 1.543 2.117 5.408 2.117 5.408v4.921c1.786.14 3.63.225 5.517.251l-.05-4.899c-.272-6.698-6.014-7.518-6.014-7.518-2.103-.477-2.066.58-1.854 1.261-2.057-3.514-7.578-3.06-7.578-3.06-1.914.682-.137 1.913-.137 1.913 3.008 1.093 3.282 4.374 3.282 4.374v6.84c1.653.284 3.39.516 5.194.694" fill="#7DBAE5"/><path d="M25.09 65.51l-.889 3.093s-.23 1.12.823 1.317c1.1-.021 1.01-1.05.933-1.384l-.868-3.026z" fill="#9DDBF1"/><g transform="translate(5 11.379)"><mask id="b" fill="#fff"><use xlink:href="#a"/></mask><path d="M109.521 41.16l.081-.403c-9.025-1.804-18.285-1.823-23.888-1.59.92-3.316 1.197-7.132 1.197-11.387 0-6.102-2.293-10.985-6.015-14.7.65-2.099 1.52-6.762-.868-12.73 0 0-4.21-1.338-13.735 5.037-3.732-.932-7.703-1.393-11.68-1.393-4.375 0-8.797.557-12.92 1.688C31.863-1.025 27.523.35 27.523.35c-2.833 7.083-1.081 12.327-.549 13.63-3.33 3.592-5.362 8.178-5.362 13.801 0 4.246.484 8.053 1.665 11.363-5.651-.205-14.575-.126-23.277 1.614l.08.402c8.755-1.75 17.734-1.812 23.35-1.599.26.685.55 1.35.875 1.992-5.554.18-15.036.887-24.124 3.45l.111.395c9.16-2.583 18.725-3.273 24.225-3.441 3.319 6.185 9.86 10.18 21.5 11.434-1.653 1.11-3.337 2.997-4.021 6.19-2.251 1.076-9.377 3.705-13.652-3.649 0 0-2.393-4.376-6.974-4.718 0 0-4.443-.068-.307 2.769 0 0 2.974 1.4 5.025 6.666 0 0 2.676 8.98 15.59 6.1v9.276s-.273 3.28-3.28 4.374c0 0-1.778 1.23.136 1.913 0 0 8.339.684 8.339-6.15V66.046s-.33-4.012 1.64-5.406v16.614s-.136 3.964-2.187 5.468c0 0-1.367 2.46 1.64 1.777 0 0 5.741-.82 6.015-7.518l.13-16.814h1.38l.131 16.814c.273 6.698 6.015 7.518 6.015 7.518 3.006.683 1.64-1.777 1.64-1.777-2.05-1.504-2.187-5.468-2.187-5.468V60.783c1.97 1.534 1.64 5.263 1.64 5.263V76.16c0 6.834 8.338 6.15 8.338 6.15 1.914-.682.138-1.913.138-1.913-3.008-1.093-3.281-4.374-3.281-4.374v-13.26c0-5.17-2.178-7.909-4.307-9.354 12.412-1.23 18.368-5.238 21.113-11.465 5.436.149 15.22.811 24.579 3.452l.11-.394c-9.305-2.625-19.024-3.304-24.515-3.464.26-.63.487-1.284.689-1.956 5.564-.238 14.867-.236 23.927 1.576" fill="#1F1E1E" mask="url(#b)"/></g><path d="M79.77 38.872c2.674 2.422 4.238 5.346 4.238 8.497 0 14.713-10.968 15.112-24.496 15.112-13.53 0-24.497-2.038-24.497-15.112 0-3.13 1.542-6.036 4.183-8.448 4.403-4.02 11.858-1.892 20.314-1.892 8.422 0 15.848-2.15 20.259 1.843" fill="#F3C9B1"/><path d="M51.366 48.12c0 4.052-2.282 7.337-5.097 7.337-2.815 0-5.098-3.285-5.098-7.337 0-4.053 2.283-7.336 5.098-7.336s5.097 3.283 5.097 7.336" fill="#FEFEFE"/><path d="M49.73 48.211c0 2.702-1.522 4.89-3.398 4.89-1.877 0-3.398-2.188-3.398-4.89 0-2.702 1.52-4.892 3.398-4.892 1.876 0 3.398 2.19 3.398 4.892" fill="#AC5B51"/><path d="M78.71 48.12c0 4.052-2.281 7.337-5.097 7.337-2.814 0-5.097-3.285-5.097-7.337 0-4.053 2.283-7.336 5.097-7.336 2.816 0 5.098 3.283 5.098 7.336" fill="#FEFEFE"/><path d="M77.074 48.211c0 2.702-1.521 4.89-3.398 4.89-1.876 0-3.398-2.188-3.398-4.89 0-2.702 1.522-4.892 3.398-4.892 1.877 0 3.398 2.19 3.398 4.892m-16.216 6.424a1.275 1.275 0 11-2.55 0 1.275 1.275 0 012.55 0m-4.244 3.223a.41.41 0 01.773-.273 2.324 2.324 0 002.186 1.548c.98 0 1.858-.622 2.186-1.548a.409.409 0 11.773.273 3.146 3.146 0 01-2.96 2.094 3.147 3.147 0 01-2.958-2.094" fill="#AC5B51"/><path d="M28.353 63.686c0 .34-.398.615-.889.615-.49 0-.888-.274-.888-.615 0-.34.398-.616.888-.616.491 0 .89.276.89.616m2.461 1.367c0 .34-.399.616-.89.616-.49 0-.888-.276-.888-.616 0-.34.398-.615.889-.615.49 0 .889.276.889.615m1.504 1.778c0 .34-.398.615-.89.615-.49 0-.888-.276-.888-.615 0-.34.398-.616.888-.616.492 0 .89.276.89.616m1.366 2.051c0 .34-.397.616-.888.616s-.889-.276-.889-.616c0-.34.398-.616.89-.616.49 0 .887.275.887.616m1.505 1.914c0 .34-.398.615-.889.615-.49 0-.889-.276-.889-.615 0-.34.398-.616.89-.616.49 0 .888.276.888.616m2.05 1.64c0 .34-.397.616-.888.616s-.888-.275-.888-.616c0-.339.397-.614.888-.614s.889.275.889.614m2.871 1.094c0 .34-.398.616-.889.616-.49 0-.889-.276-.889-.615 0-.34.398-.616.89-.616.49 0 .888.275.888.616m2.858-.001c0 .34-.398.616-.89.616-.49 0-.888-.276-.888-.615 0-.34.398-.616.889-.616.49 0 .888.275.888.616m2.901-.476c0 .34-.398.616-.889.616s-.889-.276-.889-.616c0-.34.398-.616.89-.616.49 0 .888.275.888.616" fill="#9DDAEF"/><path d="M45.44 45.833a.764.764 0 11-1.528 0 .764.764 0 011.528 0m27.344 0a.765.765 0 11-1.529-.002.765.765 0 011.53.002" fill="#FEFEFE"/></g></svg>