<svg width="120" height="120" viewBox="0 0 120 120" xmlns="http://www.w3.org/2000/svg"><path d="M45.158 90c30.19 0 46.7-25.01 46.7-46.698 0-.71 0-1.417-.047-2.121A33.398 33.398 0 00100 32.685a32.756 32.756 0 01-9.427 2.582 16.469 16.469 0 007.216-9.077 32.89 32.89 0 01-10.423 3.983c-6.216-6.609-16.613-6.928-23.223-.712a16.426 16.426 0 00-4.748 15.681 46.6 46.6 0 01-33.827-17.148c-4.356 7.5-2.131 17.093 5.082 21.91a16.293 16.293 0 01-7.45-2.055v.208a16.418 16.418 0 0013.168 16.089 16.383 16.383 0 01-7.411.281A16.431 16.431 0 0044.29 75.825 32.934 32.934 0 0120 82.628a46.469 46.469 0 0025.158 7.36" fill="#1DA1F2" fill-rule="evenodd"/></svg>