<svg width="120" height="120" viewBox="0 0 120 120" xmlns="http://www.w3.org/2000/svg"><path d="M54.703 98.228c-6.855 0-12.919-1.565-18.192-4.696-5.273-3.13-9.343-7.316-12.21-12.556C21.434 75.736 20 70.116 20 64.118c0-7.448 1.911-14.402 5.734-20.861 3.823-6.46 8.948-11.617 15.375-15.473C47.535 23.928 54.472 22 61.92 22c6.789 0 13.067 1.467 18.834 4.4 5.768 2.933 10.349 6.986 13.743 12.16 3.395 5.175 5.092 11.058 5.092 17.649 0 4.152-.643 8.074-1.928 11.765-1.285 3.691-3.296 6.723-6.031 9.096s-6.212 3.56-10.43 3.56c-3.296 0-5.867-.725-7.713-2.175-1.845-1.45-2.966-3.164-3.361-5.142-2.043 2.505-4.482 4.367-7.316 5.586-2.835 1.22-5.834 1.83-8.998 1.83-5.273 0-9.392-1.615-12.358-4.845-2.966-3.23-4.45-7.415-4.45-12.557 0-4.943 1.105-9.227 3.313-12.853 2.208-3.625 5.108-6.393 8.7-8.305 3.592-1.911 7.399-2.867 11.42-2.867 4.943 0 9.162 1.68 12.655 5.043l.297-1.681c.131-.857.543-1.582 1.235-2.175.693-.594 1.5-.89 2.423-.89.988 0 1.829.346 2.52 1.038.693.692 1.039 1.565 1.039 2.62l-.099 1.088-3.263 18.785c-.46 2.439-.692 4.58-.692 6.426s.412 3.378 1.236 4.598c.824 1.22 2.06 1.829 3.708 1.829 4.086 0 7.234-1.78 9.442-5.34 2.208-3.558 3.312-8.37 3.312-14.434s-1.549-11.288-4.647-15.671c-3.098-4.383-7.135-7.695-12.111-9.936-4.977-2.241-10.167-3.362-15.572-3.362-6.526 0-12.606 1.68-18.242 5.042-5.635 3.362-10.134 7.877-13.495 13.546-3.362 5.668-5.043 11.765-5.043 18.29 0 4.878 1.17 9.541 3.51 13.99 2.34 4.45 5.734 8.058 10.184 10.827 4.449 2.768 9.738 4.152 15.868 4.152 4.02 0 7.514-.379 10.48-1.137s6.361-1.895 10.184-3.41a3.464 3.464 0 011.088-.199c.725 0 1.318.231 1.78.693a2.29 2.29 0 01.691 1.68c0 .462-.132.907-.395 1.335-.264.429-.593.742-.989.94-6.987 3.493-14.6 5.24-22.839 5.24zm1.286-24.321c8.041 0 12.853-4.614 14.434-13.842l1.582-9.195c-2.9-3.032-6.624-4.548-11.172-4.548-2.834 0-5.487.626-7.959 1.878-2.472 1.253-4.465 3.082-5.981 5.488-1.516 2.406-2.274 5.29-2.274 8.65 0 3.824 1.054 6.707 3.163 8.652 2.11 1.944 4.845 2.917 8.207 2.917z" fill="#61879F" fill-rule="evenodd"/></svg>