<svg width="120" height="120" viewBox="0 0 120 120" xmlns="http://www.w3.org/2000/svg"><g fill="none" fill-rule="evenodd"><path d="M73.062 23.234a7.636 7.636 0 00-9.545-4.877 7.636 7.636 0 00-4.877 9.545l19.578 60.196c1.324 3.693 5.365 5.783 9.197 4.668 4.04-1.184 6.479-5.434 5.155-9.336 0-.139-19.508-60.196-19.508-60.196" fill="#ECB32D"/><path d="M42.755 33.057a7.636 7.636 0 00-9.545-4.877 7.636 7.636 0 00-4.877 9.546L47.91 97.922c1.324 3.692 5.365 5.782 9.197 4.668 4.041-1.184 6.48-5.434 5.156-9.337 0-.138-19.508-60.196-19.508-60.196" fill="#63C1A0"/><path d="M97.726 73.049a7.636 7.636 0 004.877-9.545 7.636 7.636 0 00-9.545-4.877L32.792 78.274c-3.693 1.324-5.783 5.365-4.668 9.197 1.184 4.041 5.434 6.48 9.336 5.156.14 0 60.266-19.578 60.266-19.578" fill="#E01A59"/><path d="M45.333 90.119c3.901-1.255 8.987-2.926 14.422-4.668-1.254-3.902-2.926-8.988-4.668-14.422l-14.422 4.668 4.668 14.422z" fill="#331433"/><path d="M75.71 80.226c5.435-1.742 10.52-3.414 14.422-4.668-1.255-3.903-2.927-8.989-4.668-14.423l-14.422 4.668 4.667 14.423z" fill="#D62027"/><path d="M87.833 42.742a7.636 7.636 0 004.877-9.545 7.636 7.636 0 00-9.545-4.877L22.968 47.898c-3.693 1.323-5.783 5.364-4.668 9.196 1.184 4.041 5.434 6.48 9.336 5.156.14 0 60.197-19.508 60.197-19.508" fill="#89D3DF"/><path d="M35.509 59.742c3.901-1.254 8.987-2.926 14.422-4.668-1.742-5.435-3.414-10.52-4.668-14.422L30.84 45.32l4.668 14.422z" fill="#258B74"/><path d="M65.817 49.918c5.434-1.742 10.52-3.414 14.421-4.668-1.742-5.435-3.413-10.52-4.667-14.422l-14.422 4.668 4.668 14.422z" fill="#819C3C"/></g></svg>