<svg width="30" height="30" viewBox="0 0 30 30" xmlns="http://www.w3.org/2000/svg"><path d="M15.303 3C8.51 3 3 8.51 3 15.305c0 5.435 3.525 10.047 8.415 11.674.616.112.84-.267.84-.593 0-.292-.01-1.066-.017-2.093-3.422.744-4.144-1.649-4.144-1.649-.56-1.421-1.367-1.8-1.367-1.8-1.117-.763.085-.747.085-.747 1.235.086 1.885 1.267 1.885 1.267 1.097 1.88 2.879 1.338 3.58 1.023.112-.796.43-1.338.782-1.645-2.732-.31-5.605-1.366-5.605-6.081 0-1.343.48-2.442 1.267-3.302-.127-.311-.55-1.562.12-3.255 0 0 1.033-.332 3.384 1.26.98-.272 2.034-.41 3.08-.414 1.044.005 2.097.142 3.08.414 2.349-1.592 3.38-1.26 3.38-1.26.671 1.693.25 2.944.122 3.255.789.86 1.266 1.959 1.266 3.302 0 4.726-2.877 5.766-5.618 6.072.441.379.835 1.13.835 2.278 0 1.645-.015 2.972-.015 3.375 0 .329.221.712.846.591 4.884-1.63 8.407-6.238 8.407-11.672C27.608 8.509 22.098 3 15.303 3" fill="#2D333A" fill-rule="evenodd"/></svg>