<svg xmlns="http://www.w3.org/2000/svg" viewBox="0 0 540.69 222.31" id="svg41" width="540.69" height="222.31"><defs id="defs4"><style id="style2">.cls-1{fill:#876929}.cls-2{fill:#d9a741}</style></defs><g id="Layer_2" data-name="Layer 2"><g id="Layer_1-2" data-name="Layer 1"><g id="SQS"><path d="M253 143.2c0-6-2.16-10.16-8.88-10.16-5.92 0-9.44 3.2-9.44 9.28 0 16.08 27 6.48 27 27.36 0 13.2-9.68 17-17.76 17-13.36 0-17.28-6.88-17.28-19h7c0 6.4.4 13.28 10.72 13.28a9.62 9.62 0 009.92-10.08c0-16.16-27-6.8-27-27.76 0-5.28 2.24-15.76 16.72-15.76 10.88 0 15.84 5.44 16 15.92z" id="path8"/><path d="M298.15 183.76a16.15 16.15 0 01-9.84 2.88c-15.76 0-18.4-15.28-18.4-29.68s2.64-29.68 18.4-29.68c15.76 0 18.4 15.28 18.4 29.68 0 8.24-.88 16.8-4.64 22.56l5.76 5.28-3.92 4.2zm-10.15-9.2l3.92-4.32 5.28 4.8c1.76-4.32 2.16-10.8 2.16-18.08 0-13.2-1.28-23.92-11-23.92s-11 10.72-11 23.92c0 13.2 1.28 23.92 11 23.92a9.46 9.46 0 005.2-1.36z" id="path10"/><path d="M341.43 143.2c0-6-2.16-10.16-8.88-10.16-5.92 0-9.44 3.2-9.44 9.28 0 16.08 27 6.48 27 27.36 0 13.2-9.68 17-17.76 17-13.36 0-17.28-6.88-17.28-19h7c0 6.4.4 13.28 10.72 13.28a9.62 9.62 0 009.92-10.08c0-16.16-27-6.8-27-27.76 0-5.28 2.24-15.76 16.72-15.76 10.88 0 15.84 5.44 16 15.92z" id="path12"/></g><g id="SQS-2" data-name="SQS"><path class="cls-1" id="polygon15" fill="#876929" d="M92 222.31l92-46.13v-25.9l-78.24-9.72V81.75L184 72.03v-25.9L92 0 0 46.13v130.05z"/><path class="cls-1" id="polygon17" fill="#876929" d="M92 222.31L0 176.18v-25.9l92 27.51z"/><path class="cls-1" id="polygon19" fill="#876929" d="M0 46.13l11.87-5.93v141.91L0 176.18z"/><path class="cls-2" id="polygon21" fill="#d9a741" d="M11.87 68.53l93.89 13.22v58.81l-93.89 13.22z"/><path class="cls-2" id="polygon23" fill="#d9a741" d="M92 0l92 46.13v25.9L92 44.52z"/><path class="cls-2" id="polygon25" fill="#d9a741" d="M92 222.31l92-46.13v-25.9l-92 27.51z"/><path class="cls-1" id="polygon27" fill="#876929" d="M92 82.83l-33.99 4.31v47.76L92 139.21z"/><path class="cls-1" id="polygon29" fill="#876929" d="M45.87 88.76l-21.86 2.7v39.39l21.86 2.7z"/><path id="polygon31" fill="#624a1e" d="M184 72.03l-78.24 9.72-93.89-13.22L92 44.52z"/><path id="polygon33" fill="#fad791" d="M184 150.28l-78.24-9.72-93.89 13.22L92 177.79z"/><path class="cls-2" id="polygon35" fill="#d9a741" d="M92 82.83l92 11.87v32.91l-92 11.6z"/></g><path id="Amazon" d="M250.16 51.48c-9.24 0-19.45 3.58-21.68 15.28a1.65 1.65 0 001.25 2h.16l9.48 1.14a2.11 2.11 0 001.52-2 7.42 7.42 0 017.83-5.9 6.48 6.48 0 015.42 2.52 13 13 0 011.27 7.21v1.38a66.06 66.06 0 00-18.34 3.41 17 17 0 00-10.35 16.26c0 10.38 6.48 15.55 14.52 15.55a19 19 0 0016.07-7.21 23.82 23.82 0 005.42 6.48 2 2 0 002.28-.27c2-1.79 5.42-5 7.45-6.69a1.92 1.92 0 000-2.71 13.71 13.71 0 01-3.66-9.21v-15.1c0-6.48.54-12.65-4.17-17.21a21.68 21.68 0 00-14.47-4.93zm127.35 0c-9.24 0-19.45 3.58-21.68 15.28a1.65 1.65 0 001.25 2h.16l9.48 1.14a2.11 2.11 0 001.65-2 7.42 7.42 0 017.84-5.9 6.48 6.48 0 015.42 2.52 13 13 0 011.14 7.21v1.38a65.22 65.22 0 00-18.21 3.41 17 17 0 00-10.35 16.26c0 10.38 6.48 15.55 14.52 15.55a19 19 0 0016.07-7.21 23.71 23.71 0 005.42 6.48 2 2 0 002.28-.27c2-1.79 5.42-5 7.45-6.69a2 2 0 000-2.71 13.71 13.71 0 01-3.66-9.21v-15.1c0-6.48.43-12.65-4.28-17.21a21.41 21.41 0 00-14.47-4.93zm-71.64.52a13 13 0 00-12.79 9.43v-6.67a1.92 1.92 0 00-1.79-1.76h-9a1.92 1.92 0 00-1.87 1.87V106a2 2 0 001.79 1.79h9.73a1.92 1.92 0 001.87-1.87V78.84c0-5.93-.3-14 6.69-14s5.93 8.35 5.93 14v27.1a2 2 0 001.79 1.87h9.73a1.92 1.92 0 001.87-1.87v-27.1a31.11 31.11 0 01.87-9.73 6.48 6.48 0 015.72-4.34 5.07 5.07 0 015.59 4.37 67.74 67.74 0 01.27 9.73V106a2 2 0 001.79 1.87h9.73a1.92 1.92 0 001.87-1.87V73.45c0-5.42.54-11.73-2.52-16.07a14.17 14.17 0 00-24.39 4c-3-6.39-6.8-9.35-12.87-9.35zm165.47 0c-14 0-21.87 12.36-21.87 28.29s7.72 28.56 21.87 28.56c13.55 0 22.22-12.44 22.22-28.07 0-16.09-7.88-28.78-22.41-28.78zm55.49 0c-6.72 0-10.54 3.25-13.28 10.35v-7.8a1.87 1.87 0 00-1.79-1.38h-9a1.84 1.84 0 00-1.87 1.65v51.13a2 2 0 001.79 1.87h9.73a1.92 1.92 0 001.87-1.87V78.41a23.65 23.65 0 011.72-9.73 6.23 6.23 0 015.23-4.12c6.72 0 6.07 8.13 6.07 13.76v27.8a1.92 1.92 0 001.79 1.65h9.73a1.92 1.92 0 001.87-1.65V74c0-5 0-11.84-2.52-15.93a12.76 12.76 0 00-11.4-6.07zM410 52.86a1.79 1.79 0 00-1.79 1.79V62a1.79 1.79 0 001.68 1.87h16.77L407.72 92a9.32 9.32 0 00-1.35 5v7.45a1.68 1.68 0 002.28 1.65 35.9 35.9 0 0133.73 0 1.76 1.76 0 002.41-1.65V96.7A3.25 3.25 0 00443 94a34.68 34.68 0 00-18.21-4.06l16.56-24.39a10.24 10.24 0 002.41-4.55v-6.24a1.79 1.79 0 00-1.68-1.87H410zm61.29 9.73a6.2 6.2 0 016.48 4.93 48.37 48.37 0 011.38 13.55c0 6.48-.33 17.42-7.83 17.42s-7.59-13.55-7.59-19.7c0-6.15.33-16.26 7.37-16.26zm-216 18.56v2.14a20.1 20.1 0 01-1.79 10.57 7.86 7.86 0 01-6.69 4.55c-3.74 0-5.93-3-5.93-7.34-.11-8.4 7.45-9.89 14.44-9.89zm127.35 0v2.14a20.08 20.08 0 01-1.79 10.62 7.83 7.83 0 01-6.69 4.55c-3.74 0-5.93-3-5.93-7.34 0-8.48 7.37-10 14.36-10z" fill="#201c1d"/></g></g></svg>