<svg version="1.1" id="Layer_1" xmlns="http://www.w3.org/2000/svg" x="0" y="0" viewBox="0 0 126 128.2" xml:space="preserve"><style>.st0{fill:#2d333a}</style><g id="Layer_2_1_"><path transform="rotate(-18.522 63.095 65.015)" class="st0" d="M54.3 56.5h17.6v17H54.3z"/><path transform="rotate(-18.522 63.095 65.015)" class="st0" d="M54.3 56.5h17.6v17H54.3z"/><path class="st0" d="M120.4 47.7c-12.9-43-31.5-53-74.5-40.1s-53 31.5-40.1 74.5 31.5 53 74.5 40.1 53-31.5 40.1-74.5zM98.7 75.6l-8.1 2.7 2.8 8.4c1.1 3.4-.7 7.1-4.1 8.2-.7.2-1.5.4-2.2.3-2.6-.1-5.1-1.8-6-4.4l-2.8-8.4L61.6 88l2.8 8.4c1.1 3.4-.7 7.1-4.1 8.2-.7.2-1.5.4-2.2.3-2.6-.1-5.1-1.8-6-4.4l-2.8-8.4-8.1 2.7c-.7.2-1.5.4-2.2.3-2.6-.1-5.1-1.8-6-4.4-1.1-3.4.7-7.1 4.1-8.2l8.1-2.7-5.4-16.1-8.1 2.7c-.7.2-1.5.4-2.2.3-2.6-.1-5.1-1.8-6-4.4-1.1-3.4.7-7.1 4.1-8.2l8.1-2.7-2.8-8.4c-1.1-3.4.7-7.1 4.1-8.2s7.1.7 8.2 4.1l2.8 8.4 16.7-5.6-2.8-8.4c-1.1-3.4.7-7.1 4.1-8.2s7.1.7 8.2 4.1l2.8 8.4 8.1-2.7c3.4-1.1 7.1.7 8.2 4.1 1.1 3.4-.7 7.1-4.1 8.2l-8.1 2.7L86.5 66l8.1-2.7c3.4-1.1 7.1.7 8.2 4.1 1.1 3.4-.7 7.1-4.1 8.2z"/></g></svg>