<svg xmlns="http://www.w3.org/2000/svg" viewBox="0 0 972.4 146.7"><switch><g><path d="M171.7 111.2V16.7h13.2v41.1h45.2V16.7H243v94.5h-12.9V70.1h-45.2v41.1h-13.2zm91.2-17.1c-2-5-3-11.1-3-18.2s1-13.2 3-18.3c2-5 4.7-8.8 8.1-11.3 3.4-2.5 6.9-4.3 10.5-5.3 3.6-1 7.5-1.6 11.8-1.6 4.3 0 8.2.5 11.8 1.6 3.6 1 7.1 2.8 10.5 5.3 3.4 2.5 6.1 6.3 8.1 11.3s3 11.1 3 18.3-1 13.2-3 18.2-4.7 8.8-8.1 11.3c-3.4 2.5-6.9 4.3-10.5 5.3-3.6 1-7.5 1.6-11.8 1.6-4.3 0-8.2-.5-11.8-1.6-3.6-1-7.1-2.8-10.5-5.3-3.4-2.5-6.1-6.2-8.1-11.3zm11.7-31.2c-1 3.4-1.6 7.8-1.6 13s.5 9.6 1.6 13c1 3.4 2.6 5.9 4.7 7.6 2.1 1.7 4.2 2.8 6.3 3.3 2.1.5 4.7.8 7.7.8s5.6-.3 7.7-.8c2.1-.5 4.2-1.6 6.3-3.3 2.1-1.7 3.6-4.2 4.7-7.6 1-3.4 1.6-7.8 1.6-13s-.5-9.6-1.6-13c-1-3.4-2.6-5.9-4.7-7.6-2.1-1.7-4.2-2.8-6.3-3.3-2.1-.5-4.7-.8-7.7-.8s-5.6.3-7.7.8c-2.1.5-4.2 1.7-6.3 3.3-2.1 1.6-3.6 4.1-4.7 7.6zm66.2 18.5V40.5h12.9v42c0 6.4 1.4 11.1 4.1 14.1 2.7 3 7 4.5 12.9 4.5s10.1-1.5 12.8-4.5c2.7-3 4-7.7 4-14.2v-42h12.9v40.9c0 9.8-2.6 17.4-7.8 22.9-5.2 5.4-12.5 8.1-22 8.1-9.4 0-16.8-2.7-22-8.1-5.2-5.3-7.8-13-7.8-22.8zm74-21c0-5.8 2.1-10.8 6.3-14.9 4.2-4.1 10.5-6.1 19.1-6.1 6.4 0 12.7 1.5 18.9 4.6v11.2c-6.1-2.8-11.9-4.2-17.3-4.2-9.4 0-14 3-14 9 0 2 1.2 3.6 3.7 4.9 2.5 1.3 5.5 2.5 9 3.4 3.5 1 7 2.2 10.5 3.6s6.5 3.8 9 7.1 3.8 7.4 3.8 12.3c0 5.7-2.1 10.6-6.4 14.7-4.3 4.1-10.9 6.2-19.9 6.2-7.6 0-14.4-1.7-20.4-5V95.5c6.1 3.4 12.7 5.2 19.6 5.2h.3c4.5 0 8-.8 10.3-2.4 2.4-1.6 3.6-3.7 3.6-6.2 0-2.9-1.2-5.2-3.7-7-2.5-1.8-5.5-3.1-9-4.1-3.6-1-7.1-2.1-10.6-3.3-3.5-1.2-6.5-3.2-9-6.1-2.6-3-3.8-6.7-3.8-11.2zm59.9 16.3c0-24.9 10.4-37.3 31.2-37.3h.1c9.4 0 17 3.1 22.6 9.3 5.6 6.2 8.5 14.4 8.5 24.8 0 3.4-.1 6.6-.4 9.7h-48.8c1.6 12.1 8.2 18.2 19.9 18.2 9.5 0 17.7-1.8 24.4-5.3v11.8c-7.3 3.1-15.5 4.6-24.7 4.6h-.4c-4.1 0-8-.5-11.5-1.6-3.5-1-6.9-2.8-10.2-5.2-3.3-2.4-5.9-6.1-7.8-11.1-2-4.9-2.9-10.9-2.9-17.9zm13-5.2H524c-.2-2.4-.6-4.6-1.2-6.7-.6-2.1-1.6-4.3-2.8-6.5s-3.1-4-5.5-5.3c-2.4-1.3-5.3-2-8.6-2-5.9 0-10.3 1.5-13.1 4.6-2.8 3.1-4.5 8.4-5.1 15.9zm65.4 12.8c-1.7-5.9-2.6-12.7-2.6-20.4s.9-14.5 2.6-20.4c1.7-5.9 4-10.5 6.7-14 2.8-3.5 6.1-6.3 10.1-8.5s7.9-3.7 11.8-4.4c3.8-.7 7.9-1.1 12.2-1.1 9.8 0 19.5 1.9 28.9 5.6v12.2c-8.9-4-18-5.9-27.4-5.9-11.2 0-19.3 2.9-24.3 8.6-5 5.7-7.5 15-7.5 27.9 0 12.7 2.5 22 7.5 27.8 5 5.8 13.1 8.7 24.3 8.7 9.4 0 18.5-2 27.4-5.9v12.2c-9.5 3.8-19.1 5.7-28.9 5.7-4.3 0-8.4-.4-12.2-1.1-3.8-.7-7.7-2.2-11.8-4.4-4-2.2-7.4-5-10.1-8.5-2.7-3.6-5-8.3-6.7-14.1zm82.5 4.5c0-7 3-12.4 8.9-16.4 5.9-3.9 14.1-5.9 24.4-5.9 4.4 0 8.7.3 12.8.8-.3-5.9-1.9-10.2-4.9-12.8-3-2.6-7.8-3.9-14.6-3.9-6.1 0-12.7 1.2-19.6 3.5V43.2c6.7-2.5 13.8-3.8 21.4-3.8 9.9 0 17.5 2.5 22.8 7.6 5.4 5.1 8.1 12.4 8.1 22v20.4c0 1.5-.2 3-.5 4.5s-1 3.4-2.2 5.8c-1.1 2.4-2.7 4.4-4.6 6.2-1.9 1.8-4.9 3.3-8.7 4.5-3.9 1.3-8.4 1.9-13.5 1.9-5.2 0-9.8-.7-13.7-2-3.9-1.3-6.9-2.9-8.9-4.6-2-1.8-3.6-3.8-4.7-6.2-1.2-2.4-1.9-4.4-2.2-6-.2-1.6-.3-3.2-.3-4.7zm12.9-.1c0 8 5.7 12 17 12h.2c10.7 0 16-3.8 16-11.5V77.7c-3.4-.5-7.5-.8-12.3-.9-1.9 0-3.9.2-5.9.5-2.1.3-4.3.9-6.7 1.6-2.4.7-4.4 1.9-5.9 3.6-1.6 1.8-2.4 3.8-2.4 6.2zm62.8 22.5V46.5c9.8-4.8 19.9-7.2 30.1-7.2 9 0 16 2.3 21 7 5.1 4.7 7.6 11.1 7.6 19.4v45.6h-13.2V64.6c0-4.2-1.1-7.4-3.2-9.8-2.1-2.4-6.4-3.6-12.8-3.6-5.8 0-11.3.9-16.6 2.6v57.5h-12.9zm73-22.4c0-7 3-12.4 8.9-16.4 5.9-3.9 14.1-5.9 24.4-5.9 4.4 0 8.7.3 12.8.8-.3-5.9-1.9-10.2-4.9-12.8-3-2.6-7.8-3.9-14.6-3.9-6.1 0-12.7 1.2-19.6 3.5V43.2c6.7-2.5 13.8-3.8 21.4-3.8 9.9 0 17.5 2.5 22.8 7.6 5.4 5.1 8.1 12.4 8.1 22v20.4c0 1.5-.2 3-.5 4.5s-1 3.4-2.2 5.8c-1.1 2.4-2.7 4.4-4.6 6.2-1.9 1.8-4.9 3.3-8.7 4.5-3.9 1.3-8.4 1.9-13.5 1.9-5.2 0-9.8-.7-13.7-2-3.9-1.3-6.9-2.9-8.9-4.6-2-1.8-3.6-3.8-4.7-6.2-1.2-2.4-1.9-4.4-2.2-6-.2-1.6-.3-3.2-.3-4.7zm12.9-.1c0 8 5.7 12 17 12h.2c10.7 0 16-3.8 16-11.5V77.7c-3.4-.5-7.5-.8-12.3-.9-1.9 0-3.9.2-5.9.5-2.1.3-4.3.9-6.7 1.6s-4.4 1.9-5.9 3.6c-1.6 1.8-2.4 3.8-2.4 6.2zm62.7 22.5V46.4c11.8-4.7 23.3-7.1 34.4-7.1v11.9c-7 .1-14.2 1.1-21.5 3v56.9h-12.9zm42.3-70.7h13.9l19 52.9 18.7-52.9h13.9l-29 78.2c-5 13.6-12.3 20.3-21.9 20.3h-.1c-3.1 0-6.4-.4-9.9-1.1v-11.7c2.8.7 5.5 1.1 8 1.2 5.9 0 10.6-5.4 14.2-16.3l-26.8-70.6zM62.9 103.7h9.3v9.3h-9.3zm12.2 0h9.3v9.3h-9.3zM62.9 116h9.3v9.3h-9.3zm12.2 0h9.3v9.3h-9.3z" fill="#383638"/><path d="M107.6 15.5c-1.2-.8-3-2-4.8-2.7-.2-.5-.4-1.1-.7-1.6-.4-.8-.9-1.5-1.4-2.1C98.6 6.6 95.4 5 91.8 5c-.6 0-1.3.1-1.9.2-2.3.4-4.4 1.5-6.1 3l-.2.2-.2.2c-1.7 1.8-3.1 3.8-4 5.9-.9 2-1.5 4.1-1.8 6.2-.1.1-.3.2-.4.3-4.1 2.9-8 6.2-11.6 9.8-4.1 4.1-7.7 8.4-10.8 13-2.9 4.2-5.4 8.6-7.4 13.2L69 42.7l.3-.2c1.6-1.1 3-2.3 4.3-3.6 1.8-1.9 3.3-4.1 4.4-6.4.4-.8.7-1.6 1-2.3-.1 2.8-.8 5.6-2 8.2-.9 1.9-2.1 3.7-3.6 5.3-1 1.1-2.2 2.1-3.5 3l-.3.2-24.9 16.2-17.3 11.5c.9 2 2 4 3.2 5.8 2.7-3 5.8-5.6 9.5-7.7.7-.4 1.3-.8 2-1.1 6-3.1 12.4-4.6 18.7-4.5H68c17.7 0 32.1-14.4 32.1-32.1 0-3.2-.5-6.2-1.3-9.1 1.5-1.1 2.7-2.5 3.5-4.2.3-.6.5-1.2.7-1.8 2.5-.8 5.3-2.7 5.9-3.2l.1-.1s-.5-.5-1.4-1.1z" fill="#feb913"/><path class="st" d="M120 97.4V77.5h-12.4v11.7l-34-22.7-66.8 44.6c2.2 2.5 4.6 4.9 7 7.1l59.8-35.6 59.8 35.6c2.5-2.2 4.8-4.6 7-7.1L120 97.4z"/></g></switch></svg>