<?xml version="1.0" encoding="UTF-8"?>
<svg width="120px" height="120px" viewBox="0 0 120 120" version="1.1" xmlns="http://www.w3.org/2000/svg" xmlns:xlink="http://www.w3.org/1999/xlink">
    <!-- Generator: Sketch 52.1 (67048) - http://www.bohemiancoding.com/sketch -->
    <title>community-twitter</title>
    <desc>Created with Sketch.</desc>
    <g id="community-twitter" stroke="none" stroke-width="1" fill="none" fill-rule="evenodd">
        <path d="M45.1584,90 C75.3472,90 91.85888,64.9903768 91.85888,43.3021442 C91.85888,42.591789 91.85888,41.8846336 91.8112,41.1806779 C95.02336,38.8573044 97.79616,35.9806858 100,32.6852136 C97.00448,34.0124899 93.82656,34.883155 90.5728,35.2674507 C93.99904,33.2163801 96.56384,29.9903435 97.7888,26.1896231 C94.56672,28.1015025 91.04224,29.4486176 87.36608,30.1733719 C81.1504,23.5641886 70.75296,23.2451687 64.14336,29.4607768 C59.88064,33.4691641 58.072,39.4425475 59.3952,45.1420282 C46.19808,44.4806299 33.9024,38.2474229 25.568,27.9943093 C21.21152,35.4936765 23.4368,45.0873116 30.6496,49.903328 C28.03744,49.8258929 25.48256,49.1212973 23.2,47.8490575 L23.2,48.0570444 C23.20224,55.8696718 28.70944,62.5985276 36.368,64.1456301 C33.95168,64.8047885 31.41632,64.9011024 28.9568,64.4272123 C31.10688,71.1131908 37.26912,75.693062 44.2912,75.8248937 C38.47904,80.3926057 31.2992,82.8721294 23.9072,82.8644499 C22.60128,82.86189 21.29664,82.782855 20,82.6276648 C27.50592,87.4443211 36.23968,89.9990401 45.1584,89.9872008" id="Fill-1" fill="#1DA1F2"></path>
    </g>
</svg>